<mxfile host="app.diagrams.net" modified="2023-07-05T00:31:41.084Z" agent="Mozilla/5.0 (Windows NT 10.0; Win64; x64) AppleWebKit/537.36 (KHTML, like Gecko) Chrome/114.0.0.0 Safari/537.36" etag="Ha73Oor90zpCG623HOJj" version="21.5.2" type="github">
  <diagram id="R2lEEEUBdFMjLlhIrx00" name="Page-1">
    <mxGraphModel dx="420" dy="527" grid="1" gridSize="10" guides="1" tooltips="1" connect="1" arrows="1" fold="1" page="1" pageScale="1" pageWidth="850" pageHeight="1100" background="#0D5752" math="0" shadow="0" extFonts="Permanent Marker^https://fonts.googleapis.com/css?family=Permanent+Marker">
      <root>
        <mxCell id="0" />
        <mxCell id="1" parent="0" />
        <mxCell id="xtBjh4fdduiDJycLXYyy-10" value="Clinic" style="whiteSpace=wrap;html=1;align=center;fillColor=#f5f5f5;fontColor=#333333;strokeColor=#000000;" parent="1" vertex="1">
          <mxGeometry x="485.17" y="500" width="80" height="40" as="geometry" />
        </mxCell>
        <mxCell id="xtBjh4fdduiDJycLXYyy-11" value="Department" style="whiteSpace=wrap;html=1;align=center;fillColor=#f5f5f5;fontColor=#333333;strokeColor=#000000;" parent="1" vertex="1">
          <mxGeometry x="787.67" y="609.75" width="80" height="40" as="geometry" />
        </mxCell>
        <mxCell id="xtBjh4fdduiDJycLXYyy-12" value="Result" style="whiteSpace=wrap;html=1;align=center;fillColor=#f5f5f5;fontColor=#333333;strokeColor=#000000;" parent="1" vertex="1">
          <mxGeometry x="410" y="805" width="80" height="40" as="geometry" />
        </mxCell>
        <mxCell id="xtBjh4fdduiDJycLXYyy-6" value="Employer" style="whiteSpace=wrap;html=1;align=center;fillColor=#f5f5f5;fontColor=#333333;strokeColor=#000000;" parent="1" vertex="1">
          <mxGeometry x="560" y="240" width="80" height="40" as="geometry" />
        </mxCell>
        <mxCell id="xtBjh4fdduiDJycLXYyy-8" value="Medic" style="whiteSpace=wrap;html=1;align=center;fillColor=#f5f5f5;fontColor=#333333;strokeColor=#000000;" parent="1" vertex="1">
          <mxGeometry x="460" y="350" width="80" height="40" as="geometry" />
        </mxCell>
        <mxCell id="xtBjh4fdduiDJycLXYyy-9" value="Administrator" style="whiteSpace=wrap;html=1;align=center;fillColor=#f5f5f5;fontColor=#333333;strokeColor=#000000;" parent="1" vertex="1">
          <mxGeometry x="660" y="350" width="80" height="40" as="geometry" />
        </mxCell>
        <mxCell id="xtBjh4fdduiDJycLXYyy-45" value="" style="ellipse;whiteSpace=wrap;html=1;aspect=fixed;fillColor=#f5f5f5;fontColor=#333333;strokeColor=#000000;" parent="1" vertex="1">
          <mxGeometry x="540" y="200" width="20" height="20" as="geometry" />
        </mxCell>
        <mxCell id="xtBjh4fdduiDJycLXYyy-46" value="Name" style="text;html=1;align=center;verticalAlign=middle;whiteSpace=wrap;rounded=0;fontColor=#000000;" parent="1" vertex="1">
          <mxGeometry x="540" y="180" width="20" height="20" as="geometry" />
        </mxCell>
        <mxCell id="xtBjh4fdduiDJycLXYyy-47" value="" style="ellipse;whiteSpace=wrap;html=1;aspect=fixed;fillColor=#f5f5f5;fontColor=#333333;strokeColor=#000000;" parent="1" vertex="1">
          <mxGeometry x="590" y="200" width="20" height="20" as="geometry" />
        </mxCell>
        <mxCell id="xtBjh4fdduiDJycLXYyy-48" value="Surname" style="text;html=1;align=center;verticalAlign=middle;whiteSpace=wrap;rounded=0;fontColor=#000000;" parent="1" vertex="1">
          <mxGeometry x="590" y="180" width="20" height="20" as="geometry" />
        </mxCell>
        <mxCell id="xtBjh4fdduiDJycLXYyy-49" value="" style="ellipse;whiteSpace=wrap;html=1;aspect=fixed;fillColor=#f5f5f5;fontColor=#333333;strokeColor=#000000;" parent="1" vertex="1">
          <mxGeometry x="640" y="200" width="20" height="20" as="geometry" />
        </mxCell>
        <mxCell id="xtBjh4fdduiDJycLXYyy-50" value="Age" style="text;html=1;align=center;verticalAlign=middle;whiteSpace=wrap;rounded=0;fontColor=#000000;" parent="1" vertex="1">
          <mxGeometry x="640" y="180" width="20" height="20" as="geometry" />
        </mxCell>
        <mxCell id="xtBjh4fdduiDJycLXYyy-51" value="" style="ellipse;whiteSpace=wrap;html=1;aspect=fixed;fillColor=#000000;fontColor=#333333;strokeColor=#000000;" parent="1" vertex="1">
          <mxGeometry x="590" y="292" width="20" height="20" as="geometry" />
        </mxCell>
        <mxCell id="xtBjh4fdduiDJycLXYyy-52" value="PC" style="text;html=1;align=center;verticalAlign=middle;whiteSpace=wrap;rounded=0;fontColor=#000000;rotation=0;" parent="1" vertex="1">
          <mxGeometry x="590" y="312" width="20" height="20" as="geometry" />
        </mxCell>
        <mxCell id="xtBjh4fdduiDJycLXYyy-53" value="" style="endArrow=none;html=1;rounded=0;exitX=0.5;exitY=1;exitDx=0;exitDy=0;strokeColor=#18141d;entryX=0.5;entryY=0;entryDx=0;entryDy=0;" parent="1" source="xtBjh4fdduiDJycLXYyy-47" target="xtBjh4fdduiDJycLXYyy-6" edge="1">
          <mxGeometry width="50" height="50" relative="1" as="geometry">
            <mxPoint x="330" y="440" as="sourcePoint" />
            <mxPoint x="590" y="240" as="targetPoint" />
          </mxGeometry>
        </mxCell>
        <mxCell id="xtBjh4fdduiDJycLXYyy-54" value="" style="endArrow=none;html=1;rounded=0;exitX=0.5;exitY=1;exitDx=0;exitDy=0;strokeColor=#18141d;entryX=1;entryY=0;entryDx=0;entryDy=0;" parent="1" source="xtBjh4fdduiDJycLXYyy-49" target="xtBjh4fdduiDJycLXYyy-6" edge="1">
          <mxGeometry width="50" height="50" relative="1" as="geometry">
            <mxPoint x="610" y="230" as="sourcePoint" />
            <mxPoint x="610" y="260" as="targetPoint" />
          </mxGeometry>
        </mxCell>
        <mxCell id="xtBjh4fdduiDJycLXYyy-55" value="" style="endArrow=none;html=1;rounded=0;exitX=0.5;exitY=1;exitDx=0;exitDy=0;strokeColor=#18141d;entryX=0;entryY=0;entryDx=0;entryDy=0;" parent="1" source="xtBjh4fdduiDJycLXYyy-45" target="xtBjh4fdduiDJycLXYyy-6" edge="1">
          <mxGeometry width="50" height="50" relative="1" as="geometry">
            <mxPoint x="610" y="230" as="sourcePoint" />
            <mxPoint x="610" y="260" as="targetPoint" />
          </mxGeometry>
        </mxCell>
        <mxCell id="xtBjh4fdduiDJycLXYyy-56" value="" style="endArrow=none;html=1;rounded=0;strokeColor=#18141d;entryX=0.5;entryY=1;entryDx=0;entryDy=0;exitX=0.5;exitY=0;exitDx=0;exitDy=0;" parent="1" source="xtBjh4fdduiDJycLXYyy-51" target="xtBjh4fdduiDJycLXYyy-6" edge="1">
          <mxGeometry width="50" height="50" relative="1" as="geometry">
            <mxPoint x="660" y="280" as="sourcePoint" />
            <mxPoint x="570" y="260" as="targetPoint" />
          </mxGeometry>
        </mxCell>
        <mxCell id="xtBjh4fdduiDJycLXYyy-68" value="" style="ellipse;whiteSpace=wrap;html=1;aspect=fixed;fillColor=#f5f5f5;fontColor=#333333;strokeColor=#000000;" parent="1" vertex="1">
          <mxGeometry x="490" y="400" width="20" height="20" as="geometry" />
        </mxCell>
        <mxCell id="xtBjh4fdduiDJycLXYyy-69" value="Specialization" style="text;html=1;align=center;verticalAlign=middle;whiteSpace=wrap;rounded=0;fontColor=#000000;" parent="1" vertex="1">
          <mxGeometry x="459.99" y="420.25" width="80" height="20" as="geometry" />
        </mxCell>
        <mxCell id="xtBjh4fdduiDJycLXYyy-70" value="" style="endArrow=none;html=1;rounded=0;exitX=0.5;exitY=0;exitDx=0;exitDy=0;strokeColor=#18141d;entryX=0.5;entryY=1;entryDx=0;entryDy=0;" parent="1" source="xtBjh4fdduiDJycLXYyy-68" edge="1">
          <mxGeometry width="50" height="50" relative="1" as="geometry">
            <mxPoint x="540" y="510" as="sourcePoint" />
            <mxPoint x="500" y="390" as="targetPoint" />
          </mxGeometry>
        </mxCell>
        <mxCell id="xtBjh4fdduiDJycLXYyy-72" value="" style="ellipse;whiteSpace=wrap;html=1;aspect=fixed;fillColor=#f5f5f5;fontColor=#333333;strokeColor=#000000;" parent="1" vertex="1">
          <mxGeometry x="690" y="400" width="20" height="20" as="geometry" />
        </mxCell>
        <mxCell id="xtBjh4fdduiDJycLXYyy-73" value="Administration type" style="text;html=1;align=center;verticalAlign=middle;whiteSpace=wrap;rounded=0;fontColor=#000000;" parent="1" vertex="1">
          <mxGeometry x="660" y="430" width="80" height="20" as="geometry" />
        </mxCell>
        <mxCell id="xtBjh4fdduiDJycLXYyy-74" value="" style="endArrow=none;html=1;rounded=0;exitX=0.5;exitY=0;exitDx=0;exitDy=0;strokeColor=#18141d;entryX=0.5;entryY=1;entryDx=0;entryDy=0;" parent="1" source="xtBjh4fdduiDJycLXYyy-72" edge="1">
          <mxGeometry width="50" height="50" relative="1" as="geometry">
            <mxPoint x="540" y="410" as="sourcePoint" />
            <mxPoint x="700" y="390" as="targetPoint" />
          </mxGeometry>
        </mxCell>
        <mxCell id="xtBjh4fdduiDJycLXYyy-40" value="" style="ellipse;whiteSpace=wrap;html=1;aspect=fixed;fillColor=#000000;fontColor=#333333;strokeColor=#000000;" parent="1" vertex="1">
          <mxGeometry x="30" y="230" width="20" height="20" as="geometry" />
        </mxCell>
        <mxCell id="xtBjh4fdduiDJycLXYyy-41" value="PC" style="text;html=1;align=center;verticalAlign=middle;whiteSpace=wrap;rounded=0;fontColor=#000000;" parent="1" vertex="1">
          <mxGeometry x="30" y="210" width="20" height="20" as="geometry" />
        </mxCell>
        <mxCell id="xtBjh4fdduiDJycLXYyy-42" value="" style="endArrow=none;html=1;rounded=0;entryX=1;entryY=0.5;entryDx=0;entryDy=0;strokeColor=#18141d;exitX=0;exitY=0.5;exitDx=0;exitDy=0;" parent="1" source="xtBjh4fdduiDJycLXYyy-5" target="xtBjh4fdduiDJycLXYyy-40" edge="1">
          <mxGeometry width="50" height="50" relative="1" as="geometry">
            <mxPoint x="220" y="510" as="sourcePoint" />
            <mxPoint x="190" y="330" as="targetPoint" />
          </mxGeometry>
        </mxCell>
        <mxCell id="xtBjh4fdduiDJycLXYyy-5" value="Patient" style="whiteSpace=wrap;html=1;align=center;fillColor=#f5f5f5;fontColor=#333333;strokeColor=#000000;" parent="1" vertex="1">
          <mxGeometry x="90" y="240" width="80" height="40" as="geometry" />
        </mxCell>
        <mxCell id="xtBjh4fdduiDJycLXYyy-22" value="" style="ellipse;whiteSpace=wrap;html=1;aspect=fixed;fillColor=#f5f5f5;fontColor=#333333;strokeColor=#000000;" parent="1" vertex="1">
          <mxGeometry x="70" y="200" width="20" height="20" as="geometry" />
        </mxCell>
        <mxCell id="xtBjh4fdduiDJycLXYyy-23" value="Name" style="text;html=1;align=center;verticalAlign=middle;whiteSpace=wrap;rounded=0;fontColor=#000000;" parent="1" vertex="1">
          <mxGeometry x="70" y="180" width="20" height="20" as="geometry" />
        </mxCell>
        <mxCell id="xtBjh4fdduiDJycLXYyy-24" value="" style="ellipse;whiteSpace=wrap;html=1;aspect=fixed;fillColor=#f5f5f5;fontColor=#333333;strokeColor=#000000;" parent="1" vertex="1">
          <mxGeometry x="120" y="200" width="20" height="20" as="geometry" />
        </mxCell>
        <mxCell id="xtBjh4fdduiDJycLXYyy-25" value="Surname" style="text;html=1;align=center;verticalAlign=middle;whiteSpace=wrap;rounded=0;fontColor=#000000;" parent="1" vertex="1">
          <mxGeometry x="120" y="180" width="20" height="20" as="geometry" />
        </mxCell>
        <mxCell id="xtBjh4fdduiDJycLXYyy-30" value="" style="endArrow=none;html=1;rounded=0;entryX=0.5;entryY=1;entryDx=0;entryDy=0;exitX=0.5;exitY=0;exitDx=0;exitDy=0;strokeColor=#18141d;" parent="1" source="xtBjh4fdduiDJycLXYyy-5" target="xtBjh4fdduiDJycLXYyy-24" edge="1">
          <mxGeometry width="50" height="50" relative="1" as="geometry">
            <mxPoint x="130" y="240" as="sourcePoint" />
            <mxPoint x="100" y="60" as="targetPoint" />
          </mxGeometry>
        </mxCell>
        <mxCell id="xtBjh4fdduiDJycLXYyy-31" value="" style="endArrow=none;html=1;rounded=0;entryX=0.5;entryY=1;entryDx=0;entryDy=0;exitX=0;exitY=0;exitDx=0;exitDy=0;strokeColor=#18141d;" parent="1" source="xtBjh4fdduiDJycLXYyy-5" target="xtBjh4fdduiDJycLXYyy-22" edge="1">
          <mxGeometry width="50" height="50" relative="1" as="geometry">
            <mxPoint x="180" y="250" as="sourcePoint" />
            <mxPoint x="160" y="230" as="targetPoint" />
          </mxGeometry>
        </mxCell>
        <mxCell id="xtBjh4fdduiDJycLXYyy-35" value="" style="ellipse;whiteSpace=wrap;html=1;aspect=fixed;fillColor=#f5f5f5;fontColor=#333333;strokeColor=#000000;" parent="1" vertex="1">
          <mxGeometry x="170" y="200" width="20" height="20" as="geometry" />
        </mxCell>
        <mxCell id="xtBjh4fdduiDJycLXYyy-36" value="Age" style="text;html=1;align=center;verticalAlign=middle;whiteSpace=wrap;rounded=0;fontColor=#000000;" parent="1" vertex="1">
          <mxGeometry x="170" y="180" width="20" height="20" as="geometry" />
        </mxCell>
        <mxCell id="xtBjh4fdduiDJycLXYyy-37" value="" style="endArrow=none;html=1;rounded=0;entryX=0.5;entryY=1;entryDx=0;entryDy=0;strokeColor=#18141d;exitX=1;exitY=0;exitDx=0;exitDy=0;" parent="1" source="xtBjh4fdduiDJycLXYyy-5" target="xtBjh4fdduiDJycLXYyy-35" edge="1">
          <mxGeometry width="50" height="50" relative="1" as="geometry">
            <mxPoint x="170" y="240" as="sourcePoint" />
            <mxPoint x="140" y="60" as="targetPoint" />
          </mxGeometry>
        </mxCell>
        <mxCell id="xtBjh4fdduiDJycLXYyy-87" value="Work schedule" style="whiteSpace=wrap;html=1;align=center;fillColor=#f5f5f5;fontColor=#333333;strokeColor=#000000;" parent="1" vertex="1">
          <mxGeometry x="60" y="450.25" width="80" height="40" as="geometry" />
        </mxCell>
        <mxCell id="xtBjh4fdduiDJycLXYyy-91" value="" style="ellipse;whiteSpace=wrap;html=1;aspect=fixed;fillColor=#f5f5f5;fontColor=#333333;strokeColor=#000000;" parent="1" vertex="1">
          <mxGeometry x="55" y="420.25" width="20" height="20" as="geometry" />
        </mxCell>
        <mxCell id="xtBjh4fdduiDJycLXYyy-92" value="Start time" style="text;html=1;align=center;verticalAlign=middle;whiteSpace=wrap;rounded=0;fontColor=#000000;" parent="1" vertex="1">
          <mxGeometry x="35" y="400.25" width="60" height="20" as="geometry" />
        </mxCell>
        <mxCell id="xtBjh4fdduiDJycLXYyy-93" value="" style="endArrow=none;html=1;rounded=0;exitX=0.5;exitY=1;exitDx=0;exitDy=0;strokeColor=#18141d;entryX=0.25;entryY=0;entryDx=0;entryDy=0;" parent="1" source="xtBjh4fdduiDJycLXYyy-91" target="xtBjh4fdduiDJycLXYyy-87" edge="1">
          <mxGeometry width="50" height="50" relative="1" as="geometry">
            <mxPoint x="140" y="510.25" as="sourcePoint" />
            <mxPoint x="60" y="390.25" as="targetPoint" />
          </mxGeometry>
        </mxCell>
        <mxCell id="xtBjh4fdduiDJycLXYyy-94" value="" style="ellipse;whiteSpace=wrap;html=1;aspect=fixed;fillColor=#f5f5f5;fontColor=#333333;strokeColor=#000000;" parent="1" vertex="1">
          <mxGeometry x="120" y="420.25" width="20" height="20" as="geometry" />
        </mxCell>
        <mxCell id="xtBjh4fdduiDJycLXYyy-95" value="End time" style="text;html=1;align=center;verticalAlign=middle;whiteSpace=wrap;rounded=0;fontColor=#000000;" parent="1" vertex="1">
          <mxGeometry x="100" y="400.25" width="60" height="20" as="geometry" />
        </mxCell>
        <mxCell id="xtBjh4fdduiDJycLXYyy-96" value="" style="endArrow=none;html=1;rounded=0;exitX=0.5;exitY=1;exitDx=0;exitDy=0;strokeColor=#18141d;entryX=0.75;entryY=0;entryDx=0;entryDy=0;" parent="1" source="xtBjh4fdduiDJycLXYyy-94" target="xtBjh4fdduiDJycLXYyy-87" edge="1">
          <mxGeometry width="50" height="50" relative="1" as="geometry">
            <mxPoint x="210" y="500.25" as="sourcePoint" />
            <mxPoint x="130" y="380.25" as="targetPoint" />
          </mxGeometry>
        </mxCell>
        <mxCell id="xtBjh4fdduiDJycLXYyy-100" value="" style="ellipse;whiteSpace=wrap;html=1;aspect=fixed;fillColor=#000000;fontColor=#333333;strokeColor=#000000;" parent="1" vertex="1">
          <mxGeometry x="30" y="460" width="20" height="20" as="geometry" />
        </mxCell>
        <mxCell id="xtBjh4fdduiDJycLXYyy-101" value="Id" style="text;html=1;align=center;verticalAlign=middle;whiteSpace=wrap;rounded=0;fontColor=#000000;" parent="1" vertex="1">
          <mxGeometry x="30" y="440" width="20" height="20" as="geometry" />
        </mxCell>
        <mxCell id="xtBjh4fdduiDJycLXYyy-102" value="" style="endArrow=none;html=1;rounded=0;exitX=1;exitY=0.5;exitDx=0;exitDy=0;strokeColor=#18141d;entryX=0;entryY=0.5;entryDx=0;entryDy=0;" parent="1" source="xtBjh4fdduiDJycLXYyy-100" target="xtBjh4fdduiDJycLXYyy-87" edge="1">
          <mxGeometry width="50" height="50" relative="1" as="geometry">
            <mxPoint x="61" y="443.25" as="sourcePoint" />
            <mxPoint x="60" y="470.25" as="targetPoint" />
          </mxGeometry>
        </mxCell>
        <mxCell id="xtBjh4fdduiDJycLXYyy-105" value="Specialization" style="text;html=1;align=center;verticalAlign=middle;whiteSpace=wrap;rounded=0;fontColor=#000000;" parent="1" vertex="1">
          <mxGeometry x="817.67" y="694.75" width="20" height="15" as="geometry" />
        </mxCell>
        <mxCell id="xtBjh4fdduiDJycLXYyy-106" value="" style="ellipse;whiteSpace=wrap;html=1;aspect=fixed;fillColor=#FFFFFF;fontColor=#333333;strokeColor=#000000;" parent="1" vertex="1">
          <mxGeometry x="817.67" y="674.75" width="20" height="20" as="geometry" />
        </mxCell>
        <mxCell id="xtBjh4fdduiDJycLXYyy-107" value="" style="endArrow=none;html=1;rounded=0;strokeColor=#18141d;entryX=0.5;entryY=1;entryDx=0;entryDy=0;exitX=0.5;exitY=0;exitDx=0;exitDy=0;" parent="1" source="xtBjh4fdduiDJycLXYyy-106" target="xtBjh4fdduiDJycLXYyy-11" edge="1">
          <mxGeometry width="50" height="50" relative="1" as="geometry">
            <mxPoint x="867.67" y="674.75" as="sourcePoint" />
            <mxPoint x="557.67" y="679.75" as="targetPoint" />
            <Array as="points" />
          </mxGeometry>
        </mxCell>
        <mxCell id="xtBjh4fdduiDJycLXYyy-110" value="" style="ellipse;whiteSpace=wrap;html=1;aspect=fixed;fillColor=#f5f5f5;fontColor=#333333;strokeColor=#000000;" parent="1" vertex="1">
          <mxGeometry x="440" y="775" width="20" height="20" as="geometry" />
        </mxCell>
        <mxCell id="xtBjh4fdduiDJycLXYyy-111" value="Document" style="text;html=1;align=center;verticalAlign=middle;whiteSpace=wrap;rounded=0;fontColor=#000000;" parent="1" vertex="1">
          <mxGeometry x="420" y="755" width="60" height="20" as="geometry" />
        </mxCell>
        <mxCell id="xtBjh4fdduiDJycLXYyy-112" value="" style="endArrow=none;html=1;rounded=0;strokeColor=#18141d;entryX=0.5;entryY=0;entryDx=0;entryDy=0;exitX=0.5;exitY=1;exitDx=0;exitDy=0;" parent="1" source="xtBjh4fdduiDJycLXYyy-110" target="xtBjh4fdduiDJycLXYyy-12" edge="1">
          <mxGeometry width="50" height="50" relative="1" as="geometry">
            <mxPoint x="460" y="755" as="sourcePoint" />
            <mxPoint x="630" y="615" as="targetPoint" />
          </mxGeometry>
        </mxCell>
        <mxCell id="xtBjh4fdduiDJycLXYyy-114" value="PatientAccount" style="shape=rhombus;perimeter=rhombusPerimeter;whiteSpace=wrap;html=1;align=center;strokeColor=#000000;fillColor=#f5f5f5;fontColor=#333333;" parent="1" vertex="1">
          <mxGeometry x="230" y="230" width="120" height="60" as="geometry" />
        </mxCell>
        <mxCell id="xtBjh4fdduiDJycLXYyy-115" value="" style="ellipse;whiteSpace=wrap;html=1;aspect=fixed;fillColor=#f5f5f5;fontColor=#333333;strokeColor=#000000;" parent="1" vertex="1">
          <mxGeometry x="440" y="875" width="20" height="20" as="geometry" />
        </mxCell>
        <mxCell id="xtBjh4fdduiDJycLXYyy-116" value="Date" style="text;html=1;align=center;verticalAlign=middle;whiteSpace=wrap;rounded=0;fontColor=#000000;" parent="1" vertex="1">
          <mxGeometry x="440" y="895" width="20" height="20" as="geometry" />
        </mxCell>
        <mxCell id="xtBjh4fdduiDJycLXYyy-117" value="" style="endArrow=none;html=1;rounded=0;strokeColor=#18141d;entryX=0.5;entryY=1;entryDx=0;entryDy=0;exitX=0.5;exitY=0;exitDx=0;exitDy=0;" parent="1" source="xtBjh4fdduiDJycLXYyy-115" target="xtBjh4fdduiDJycLXYyy-12" edge="1">
          <mxGeometry width="50" height="50" relative="1" as="geometry">
            <mxPoint x="460" y="805" as="sourcePoint" />
            <mxPoint x="460" y="815" as="targetPoint" />
          </mxGeometry>
        </mxCell>
        <mxCell id="xtBjh4fdduiDJycLXYyy-118" value="" style="endArrow=none;html=1;rounded=0;strokeColor=#000000;fontColor=#000000;exitX=1;exitY=0.5;exitDx=0;exitDy=0;entryX=0;entryY=0.5;entryDx=0;entryDy=0;" parent="1" source="xtBjh4fdduiDJycLXYyy-5" target="xtBjh4fdduiDJycLXYyy-114" edge="1">
          <mxGeometry relative="1" as="geometry">
            <mxPoint x="190" y="300" as="sourcePoint" />
            <mxPoint x="290" y="290" as="targetPoint" />
          </mxGeometry>
        </mxCell>
        <mxCell id="xtBjh4fdduiDJycLXYyy-119" value="(0,1)" style="resizable=0;html=1;whiteSpace=wrap;align=right;verticalAlign=bottom;fontColor=#000000;" parent="xtBjh4fdduiDJycLXYyy-118" connectable="0" vertex="1">
          <mxGeometry x="1" relative="1" as="geometry">
            <mxPoint as="offset" />
          </mxGeometry>
        </mxCell>
        <mxCell id="xtBjh4fdduiDJycLXYyy-122" value="EmployerAccount" style="shape=rhombus;perimeter=rhombusPerimeter;whiteSpace=wrap;html=1;align=center;strokeColor=#000000;fillColor=#f5f5f5;fontColor=#333333;" parent="1" vertex="1">
          <mxGeometry x="370" y="230" width="120" height="60" as="geometry" />
        </mxCell>
        <mxCell id="xtBjh4fdduiDJycLXYyy-123" value="" style="endArrow=none;html=1;rounded=0;strokeColor=#000000;fontColor=#000000;exitX=0;exitY=0.5;exitDx=0;exitDy=0;entryX=1;entryY=0.5;entryDx=0;entryDy=0;" parent="1" source="xtBjh4fdduiDJycLXYyy-6" target="xtBjh4fdduiDJycLXYyy-122" edge="1">
          <mxGeometry relative="1" as="geometry">
            <mxPoint x="450" y="299.43" as="sourcePoint" />
            <mxPoint x="510" y="299.43" as="targetPoint" />
          </mxGeometry>
        </mxCell>
        <mxCell id="xtBjh4fdduiDJycLXYyy-124" value="(0,1)" style="resizable=0;html=1;whiteSpace=wrap;align=right;verticalAlign=bottom;fontColor=#000000;" parent="xtBjh4fdduiDJycLXYyy-123" connectable="0" vertex="1">
          <mxGeometry x="1" relative="1" as="geometry">
            <mxPoint x="30" as="offset" />
          </mxGeometry>
        </mxCell>
        <mxCell id="xtBjh4fdduiDJycLXYyy-127" value="EmployerSchedule" style="shape=rhombus;perimeter=rhombusPerimeter;whiteSpace=wrap;html=1;align=center;strokeColor=#000000;fillColor=#f5f5f5;fontColor=#333333;" parent="1" vertex="1">
          <mxGeometry x="210" y="518" width="160" height="82" as="geometry" />
        </mxCell>
        <mxCell id="xtBjh4fdduiDJycLXYyy-132" value="" style="endArrow=none;html=1;rounded=0;strokeColor=#000000;fontColor=#000000;exitX=1;exitY=0.75;exitDx=0;exitDy=0;entryX=0;entryY=0.5;entryDx=0;entryDy=0;" parent="1" source="xtBjh4fdduiDJycLXYyy-87" target="xtBjh4fdduiDJycLXYyy-127" edge="1">
          <mxGeometry relative="1" as="geometry">
            <mxPoint x="210" y="489.71000000000004" as="sourcePoint" />
            <mxPoint x="270" y="489.71000000000004" as="targetPoint" />
            <Array as="points">
              <mxPoint x="180" y="480" />
              <mxPoint x="180" y="559" />
            </Array>
          </mxGeometry>
        </mxCell>
        <mxCell id="xtBjh4fdduiDJycLXYyy-133" value="(0,N)" style="resizable=0;html=1;whiteSpace=wrap;align=right;verticalAlign=bottom;fontColor=#000000;" parent="xtBjh4fdduiDJycLXYyy-132" connectable="0" vertex="1">
          <mxGeometry x="1" relative="1" as="geometry">
            <mxPoint as="offset" />
          </mxGeometry>
        </mxCell>
        <mxCell id="xtBjh4fdduiDJycLXYyy-135" value="ClinicSchedule" style="shape=rhombus;perimeter=rhombusPerimeter;whiteSpace=wrap;html=1;align=center;strokeColor=#000000;fillColor=#f5f5f5;fontColor=#333333;" parent="1" vertex="1">
          <mxGeometry x="270" y="330" width="120" height="60" as="geometry" />
        </mxCell>
        <mxCell id="xtBjh4fdduiDJycLXYyy-136" value="" style="endArrow=none;html=1;rounded=0;strokeColor=#000000;fontColor=#000000;exitX=1;exitY=0.25;exitDx=0;exitDy=0;entryX=0;entryY=0.5;entryDx=0;entryDy=0;" parent="1" source="xtBjh4fdduiDJycLXYyy-87" target="xtBjh4fdduiDJycLXYyy-135" edge="1">
          <mxGeometry relative="1" as="geometry">
            <mxPoint x="170" y="630" as="sourcePoint" />
            <mxPoint x="370" y="590" as="targetPoint" />
            <Array as="points">
              <mxPoint x="200" y="460" />
              <mxPoint x="200" y="360" />
            </Array>
          </mxGeometry>
        </mxCell>
        <mxCell id="xtBjh4fdduiDJycLXYyy-137" value="(0,N)" style="resizable=0;html=1;whiteSpace=wrap;align=right;verticalAlign=bottom;fontColor=#000000;" parent="xtBjh4fdduiDJycLXYyy-136" connectable="0" vertex="1">
          <mxGeometry x="1" relative="1" as="geometry">
            <mxPoint as="offset" />
          </mxGeometry>
        </mxCell>
        <mxCell id="xtBjh4fdduiDJycLXYyy-140" value="" style="endArrow=none;html=1;rounded=0;strokeColor=#000000;fontColor=#000000;exitX=0;exitY=0.5;exitDx=0;exitDy=0;entryX=0.5;entryY=1;entryDx=0;entryDy=0;" parent="1" source="xtBjh4fdduiDJycLXYyy-10" target="xtBjh4fdduiDJycLXYyy-135" edge="1">
          <mxGeometry relative="1" as="geometry">
            <mxPoint x="180" y="640" as="sourcePoint" />
            <mxPoint x="380" y="600" as="targetPoint" />
            <Array as="points">
              <mxPoint x="330" y="520" />
            </Array>
          </mxGeometry>
        </mxCell>
        <mxCell id="xtBjh4fdduiDJycLXYyy-141" value="(1,N)" style="resizable=0;html=1;whiteSpace=wrap;align=right;verticalAlign=bottom;fontColor=#000000;" parent="xtBjh4fdduiDJycLXYyy-140" connectable="0" vertex="1">
          <mxGeometry x="1" relative="1" as="geometry">
            <mxPoint x="30" y="20" as="offset" />
          </mxGeometry>
        </mxCell>
        <mxCell id="xtBjh4fdduiDJycLXYyy-142" value="" style="ellipse;whiteSpace=wrap;html=1;aspect=fixed;fillColor=#000000;fontColor=#333333;strokeColor=#000000;" parent="1" vertex="1">
          <mxGeometry x="515.17" y="470.25" width="20" height="20" as="geometry" />
        </mxCell>
        <mxCell id="xtBjh4fdduiDJycLXYyy-143" value="Id" style="text;html=1;align=center;verticalAlign=middle;whiteSpace=wrap;rounded=0;fontColor=#000000;" parent="1" vertex="1">
          <mxGeometry x="515" y="450" width="20" height="20" as="geometry" />
        </mxCell>
        <mxCell id="xtBjh4fdduiDJycLXYyy-144" value="" style="endArrow=none;html=1;rounded=0;exitX=0.5;exitY=1;exitDx=0;exitDy=0;strokeColor=#18141d;entryX=0.5;entryY=0;entryDx=0;entryDy=0;" parent="1" source="xtBjh4fdduiDJycLXYyy-142" target="xtBjh4fdduiDJycLXYyy-10" edge="1">
          <mxGeometry width="50" height="50" relative="1" as="geometry">
            <mxPoint x="576.17" y="455.25" as="sourcePoint" />
            <mxPoint x="575.17" y="482.25" as="targetPoint" />
          </mxGeometry>
        </mxCell>
        <mxCell id="xtBjh4fdduiDJycLXYyy-150" value="PrimaryMedic" style="shape=rhombus;perimeter=rhombusPerimeter;whiteSpace=wrap;html=1;align=center;strokeColor=#000000;fillColor=#f5f5f5;fontColor=#333333;" parent="1" vertex="1">
          <mxGeometry x="767.67" y="514.75" width="120" height="60" as="geometry" />
        </mxCell>
        <mxCell id="xtBjh4fdduiDJycLXYyy-151" value="" style="endArrow=none;html=1;rounded=0;strokeColor=#000000;fontColor=#000000;exitX=0.5;exitY=0;exitDx=0;exitDy=0;entryX=0.5;entryY=1;entryDx=0;entryDy=0;" parent="1" source="xtBjh4fdduiDJycLXYyy-11" target="xtBjh4fdduiDJycLXYyy-150" edge="1">
          <mxGeometry relative="1" as="geometry">
            <mxPoint x="497.67" y="569.75" as="sourcePoint" />
            <mxPoint x="727.67" y="569.75" as="targetPoint" />
            <Array as="points" />
          </mxGeometry>
        </mxCell>
        <mxCell id="xtBjh4fdduiDJycLXYyy-152" value="(1,1)" style="resizable=0;html=1;whiteSpace=wrap;align=right;verticalAlign=bottom;fontColor=#000000;" parent="xtBjh4fdduiDJycLXYyy-151" connectable="0" vertex="1">
          <mxGeometry x="1" relative="1" as="geometry">
            <mxPoint x="40" y="10" as="offset" />
          </mxGeometry>
        </mxCell>
        <mxCell id="xtBjh4fdduiDJycLXYyy-153" value="" style="endArrow=none;html=1;rounded=0;strokeColor=#000000;fontColor=#000000;exitX=1;exitY=0.75;exitDx=0;exitDy=0;entryX=0;entryY=0.5;entryDx=0;entryDy=0;" parent="1" source="xtBjh4fdduiDJycLXYyy-8" target="xtBjh4fdduiDJycLXYyy-150" edge="1">
          <mxGeometry relative="1" as="geometry">
            <mxPoint x="730" y="710" as="sourcePoint" />
            <mxPoint x="610" y="440" as="targetPoint" />
            <Array as="points">
              <mxPoint x="640" y="380" />
              <mxPoint x="640" y="545" />
            </Array>
          </mxGeometry>
        </mxCell>
        <mxCell id="xtBjh4fdduiDJycLXYyy-154" value="(0,N)" style="resizable=0;html=1;whiteSpace=wrap;align=right;verticalAlign=bottom;fontColor=#000000;" parent="xtBjh4fdduiDJycLXYyy-153" connectable="0" vertex="1">
          <mxGeometry x="1" relative="1" as="geometry">
            <mxPoint as="offset" />
          </mxGeometry>
        </mxCell>
        <mxCell id="xtBjh4fdduiDJycLXYyy-162" value="" style="endArrow=none;html=1;rounded=0;strokeColor=#000000;fontColor=#000000;exitX=0.5;exitY=1;exitDx=0;exitDy=0;entryX=0.5;entryY=0;entryDx=0;entryDy=0;" parent="1" source="xtBjh4fdduiDJycLXYyy-2" target="xtBjh4fdduiDJycLXYyy-114" edge="1">
          <mxGeometry relative="1" as="geometry">
            <mxPoint x="180" y="270" as="sourcePoint" />
            <mxPoint x="240" y="270" as="targetPoint" />
            <Array as="points">
              <mxPoint x="340" y="200" />
              <mxPoint x="290" y="200" />
            </Array>
          </mxGeometry>
        </mxCell>
        <mxCell id="xtBjh4fdduiDJycLXYyy-163" value="(0,1)" style="resizable=0;html=1;whiteSpace=wrap;align=right;verticalAlign=bottom;fontColor=#000000;" parent="xtBjh4fdduiDJycLXYyy-162" connectable="0" vertex="1">
          <mxGeometry x="1" relative="1" as="geometry">
            <mxPoint x="30" as="offset" />
          </mxGeometry>
        </mxCell>
        <mxCell id="xtBjh4fdduiDJycLXYyy-164" value="" style="endArrow=none;html=1;rounded=0;strokeColor=#000000;fontColor=#000000;exitX=0.5;exitY=1;exitDx=0;exitDy=0;entryX=0.5;entryY=0;entryDx=0;entryDy=0;" parent="1" source="xtBjh4fdduiDJycLXYyy-2" target="xtBjh4fdduiDJycLXYyy-122" edge="1">
          <mxGeometry relative="1" as="geometry">
            <mxPoint x="300" y="150" as="sourcePoint" />
            <mxPoint x="300" y="240" as="targetPoint" />
            <Array as="points">
              <mxPoint x="380" y="200" />
              <mxPoint x="430" y="200" />
            </Array>
          </mxGeometry>
        </mxCell>
        <mxCell id="xtBjh4fdduiDJycLXYyy-165" value="(0,1)" style="resizable=0;html=1;whiteSpace=wrap;align=right;verticalAlign=bottom;fontColor=#000000;" parent="xtBjh4fdduiDJycLXYyy-164" connectable="0" vertex="1">
          <mxGeometry x="1" relative="1" as="geometry">
            <mxPoint x="30" as="offset" />
          </mxGeometry>
        </mxCell>
        <mxCell id="xtBjh4fdduiDJycLXYyy-166" value="" style="endArrow=none;html=1;rounded=0;strokeColor=#000000;fontColor=#000000;entryX=0.5;entryY=1;entryDx=0;entryDy=0;exitX=0.75;exitY=1;exitDx=0;exitDy=0;" parent="1" target="xtBjh4fdduiDJycLXYyy-127" edge="1">
          <mxGeometry relative="1" as="geometry">
            <mxPoint x="1072.5" y="340" as="sourcePoint" />
            <mxPoint x="352" y="460" as="targetPoint" />
            <Array as="points">
              <mxPoint x="1073" y="720" />
              <mxPoint x="290" y="720" />
            </Array>
          </mxGeometry>
        </mxCell>
        <mxCell id="xtBjh4fdduiDJycLXYyy-167" value="(1,N)" style="resizable=0;html=1;whiteSpace=wrap;align=right;verticalAlign=bottom;fontColor=#000000;labelBackgroundColor=none;" parent="xtBjh4fdduiDJycLXYyy-166" connectable="0" vertex="1">
          <mxGeometry x="1" relative="1" as="geometry">
            <mxPoint x="30" y="20" as="offset" />
          </mxGeometry>
        </mxCell>
        <mxCell id="xtBjh4fdduiDJycLXYyy-168" value="ClinicDepartment" style="shape=rhombus;perimeter=rhombusPerimeter;whiteSpace=wrap;html=1;align=center;strokeColor=#000000;fillColor=#f5f5f5;fontColor=#333333;" parent="1" vertex="1">
          <mxGeometry x="660" y="569" width="120" height="60" as="geometry" />
        </mxCell>
        <mxCell id="xtBjh4fdduiDJycLXYyy-169" value="" style="endArrow=none;html=1;rounded=0;strokeColor=#000000;fontColor=#000000;exitX=1;exitY=0.75;exitDx=0;exitDy=0;entryX=0;entryY=0.5;entryDx=0;entryDy=0;" parent="1" source="xtBjh4fdduiDJycLXYyy-10" target="xtBjh4fdduiDJycLXYyy-168" edge="1">
          <mxGeometry relative="1" as="geometry">
            <mxPoint x="417.67" y="569.75" as="sourcePoint" />
            <mxPoint x="577.67" y="869.75" as="targetPoint" />
            <Array as="points">
              <mxPoint x="630" y="530" />
              <mxPoint x="630" y="599" />
            </Array>
          </mxGeometry>
        </mxCell>
        <mxCell id="xtBjh4fdduiDJycLXYyy-170" value="(1,N)" style="resizable=0;html=1;whiteSpace=wrap;align=right;verticalAlign=bottom;fontColor=#000000;" parent="xtBjh4fdduiDJycLXYyy-169" connectable="0" vertex="1">
          <mxGeometry x="1" relative="1" as="geometry">
            <mxPoint as="offset" />
          </mxGeometry>
        </mxCell>
        <mxCell id="xtBjh4fdduiDJycLXYyy-171" value="" style="endArrow=none;html=1;rounded=0;strokeColor=#000000;fontColor=#000000;entryX=0.5;entryY=1;entryDx=0;entryDy=0;exitX=0.25;exitY=1;exitDx=0;exitDy=0;" parent="1" source="xtBjh4fdduiDJycLXYyy-11" target="xtBjh4fdduiDJycLXYyy-168" edge="1">
          <mxGeometry relative="1" as="geometry">
            <mxPoint x="917.67" y="659.75" as="sourcePoint" />
            <mxPoint x="787.67" y="749.75" as="targetPoint" />
            <Array as="points">
              <mxPoint x="807.67" y="679.75" />
              <mxPoint x="720" y="680" />
            </Array>
          </mxGeometry>
        </mxCell>
        <mxCell id="xtBjh4fdduiDJycLXYyy-172" value="(1,1)" style="resizable=0;html=1;whiteSpace=wrap;align=right;verticalAlign=bottom;fontColor=#000000;" parent="xtBjh4fdduiDJycLXYyy-171" connectable="0" vertex="1">
          <mxGeometry x="1" relative="1" as="geometry">
            <mxPoint x="30" y="20" as="offset" />
          </mxGeometry>
        </mxCell>
        <mxCell id="xtBjh4fdduiDJycLXYyy-175" value="" style="curved=1;endArrow=none;html=1;rounded=0;endFill=0;exitX=0;exitY=0.5;exitDx=0;exitDy=0;strokeColor=#000000;" parent="1" source="xtBjh4fdduiDJycLXYyy-178" edge="1">
          <mxGeometry width="50" height="50" relative="1" as="geometry">
            <mxPoint x="907.67" y="644.75" as="sourcePoint" />
            <mxPoint x="777.67" y="619.75" as="targetPoint" />
            <Array as="points">
              <mxPoint x="747.67" y="679.75" />
            </Array>
          </mxGeometry>
        </mxCell>
        <mxCell id="xtBjh4fdduiDJycLXYyy-178" value="" style="ellipse;whiteSpace=wrap;html=1;aspect=fixed;fillColor=#000000;fontColor=#333333;strokeColor=#000000;" parent="1" vertex="1">
          <mxGeometry x="867.67" y="654.75" width="20" height="20" as="geometry" />
        </mxCell>
        <mxCell id="xtBjh4fdduiDJycLXYyy-195" value="PastEmployment" style="whiteSpace=wrap;html=1;align=center;fillColor=#f5f5f5;fontColor=#333333;strokeColor=#000000;" parent="1" vertex="1">
          <mxGeometry x="1060" y="160.25" width="160" height="40" as="geometry" />
        </mxCell>
        <mxCell id="xtBjh4fdduiDJycLXYyy-196" value="CurrentEmployment" style="whiteSpace=wrap;html=1;align=center;fillColor=#f5f5f5;fontColor=#333333;strokeColor=#000000;" parent="1" vertex="1">
          <mxGeometry x="919" y="300.25" width="162" height="40" as="geometry" />
        </mxCell>
        <mxCell id="xtBjh4fdduiDJycLXYyy-202" value="Dismissal date" style="text;html=1;align=center;verticalAlign=middle;whiteSpace=wrap;rounded=0;fontColor=#000000;" parent="1" vertex="1">
          <mxGeometry x="1095" y="235.25" width="90" height="15" as="geometry" />
        </mxCell>
        <mxCell id="xtBjh4fdduiDJycLXYyy-203" value="" style="ellipse;whiteSpace=wrap;html=1;aspect=fixed;fillColor=#FFFFFF;fontColor=#333333;strokeColor=#000000;" parent="1" vertex="1">
          <mxGeometry x="1130" y="215.25" width="20" height="20" as="geometry" />
        </mxCell>
        <mxCell id="xtBjh4fdduiDJycLXYyy-204" value="" style="endArrow=none;html=1;rounded=0;strokeColor=#18141d;entryX=0.5;entryY=0;entryDx=0;entryDy=0;exitX=0.5;exitY=1;exitDx=0;exitDy=0;" parent="1" source="xtBjh4fdduiDJycLXYyy-195" target="xtBjh4fdduiDJycLXYyy-203" edge="1">
          <mxGeometry width="50" height="50" relative="1" as="geometry">
            <mxPoint x="1133.75" y="9" as="sourcePoint" />
            <mxPoint x="1133.75" y="44" as="targetPoint" />
            <Array as="points" />
          </mxGeometry>
        </mxCell>
        <mxCell id="xtBjh4fdduiDJycLXYyy-205" value="E-CurE" style="shape=rhombus;perimeter=rhombusPerimeter;whiteSpace=wrap;html=1;align=center;strokeColor=#000000;fillColor=#f5f5f5;fontColor=#333333;" parent="1" vertex="1">
          <mxGeometry x="810" y="144.25" width="80" height="32" as="geometry" />
        </mxCell>
        <mxCell id="xtBjh4fdduiDJycLXYyy-206" value="" style="endArrow=none;html=1;rounded=0;strokeColor=#000000;fontColor=#000000;exitX=1;exitY=0.75;exitDx=0;exitDy=0;entryX=0;entryY=0.5;entryDx=0;entryDy=0;" parent="1" source="xtBjh4fdduiDJycLXYyy-6" target="xtBjh4fdduiDJycLXYyy-205" edge="1">
          <mxGeometry relative="1" as="geometry">
            <mxPoint x="550" y="360" as="sourcePoint" />
            <mxPoint x="690" y="620" as="targetPoint" />
            <Array as="points">
              <mxPoint x="690" y="270" />
              <mxPoint x="690" y="160" />
              <mxPoint x="810" y="160" />
            </Array>
          </mxGeometry>
        </mxCell>
        <mxCell id="xtBjh4fdduiDJycLXYyy-207" value="(0,N)" style="resizable=0;html=1;whiteSpace=wrap;align=right;verticalAlign=bottom;fontColor=#000000;" parent="xtBjh4fdduiDJycLXYyy-206" connectable="0" vertex="1">
          <mxGeometry x="1" relative="1" as="geometry">
            <mxPoint as="offset" />
          </mxGeometry>
        </mxCell>
        <mxCell id="xtBjh4fdduiDJycLXYyy-208" value="" style="endArrow=none;html=1;rounded=0;strokeColor=#000000;fontColor=#000000;entryX=1;entryY=0.5;entryDx=0;entryDy=0;exitX=0.5;exitY=0;exitDx=0;exitDy=0;" parent="1" source="xtBjh4fdduiDJycLXYyy-196" target="xtBjh4fdduiDJycLXYyy-205" edge="1">
          <mxGeometry relative="1" as="geometry">
            <mxPoint x="1030" y="290.25" as="sourcePoint" />
            <mxPoint x="1100" y="387.75" as="targetPoint" />
            <Array as="points">
              <mxPoint x="1000" y="160.25" />
            </Array>
          </mxGeometry>
        </mxCell>
        <mxCell id="xtBjh4fdduiDJycLXYyy-209" value="(1,1)" style="resizable=0;html=1;whiteSpace=wrap;align=right;verticalAlign=bottom;fontColor=#000000;" parent="xtBjh4fdduiDJycLXYyy-208" connectable="0" vertex="1">
          <mxGeometry x="1" relative="1" as="geometry">
            <mxPoint x="29" as="offset" />
          </mxGeometry>
        </mxCell>
        <mxCell id="xtBjh4fdduiDJycLXYyy-210" value="D-CurrE" style="shape=rhombus;perimeter=rhombusPerimeter;whiteSpace=wrap;html=1;align=center;strokeColor=#000000;fillColor=#f5f5f5;fontColor=#333333;" parent="1" vertex="1">
          <mxGeometry x="919" y="611.75" width="82" height="36" as="geometry" />
        </mxCell>
        <mxCell id="xtBjh4fdduiDJycLXYyy-211" value="" style="endArrow=none;html=1;rounded=0;strokeColor=#000000;fontColor=#000000;exitX=1;exitY=0.5;exitDx=0;exitDy=0;entryX=0;entryY=0.5;entryDx=0;entryDy=0;" parent="1" source="xtBjh4fdduiDJycLXYyy-11" target="xtBjh4fdduiDJycLXYyy-210" edge="1">
          <mxGeometry relative="1" as="geometry">
            <mxPoint x="1247.67" y="504.75" as="sourcePoint" />
            <mxPoint x="1147.67" y="409.75" as="targetPoint" />
            <Array as="points" />
          </mxGeometry>
        </mxCell>
        <mxCell id="xtBjh4fdduiDJycLXYyy-212" value="(1,N)" style="resizable=0;html=1;whiteSpace=wrap;align=right;verticalAlign=bottom;fontColor=#000000;" parent="xtBjh4fdduiDJycLXYyy-211" connectable="0" vertex="1">
          <mxGeometry x="1" relative="1" as="geometry">
            <mxPoint as="offset" />
          </mxGeometry>
        </mxCell>
        <mxCell id="xtBjh4fdduiDJycLXYyy-213" value="" style="endArrow=none;html=1;rounded=0;strokeColor=#000000;fontColor=#000000;exitX=0;exitY=0.5;exitDx=0;exitDy=0;entryX=1;entryY=0.5;entryDx=0;entryDy=0;" parent="1" source="xtBjh4fdduiDJycLXYyy-196" target="xtBjh4fdduiDJycLXYyy-210" edge="1">
          <mxGeometry relative="1" as="geometry">
            <mxPoint x="810" y="432.5" as="sourcePoint" />
            <mxPoint x="1060" y="284" as="targetPoint" />
            <Array as="points">
              <mxPoint x="880" y="320" />
              <mxPoint x="880" y="480" />
              <mxPoint x="1040" y="480" />
              <mxPoint x="1040" y="630" />
            </Array>
          </mxGeometry>
        </mxCell>
        <mxCell id="xtBjh4fdduiDJycLXYyy-214" value="(0,1)" style="resizable=0;html=1;whiteSpace=wrap;align=right;verticalAlign=bottom;fontColor=#000000;" parent="xtBjh4fdduiDJycLXYyy-213" connectable="0" vertex="1">
          <mxGeometry x="1" relative="1" as="geometry">
            <mxPoint x="30" as="offset" />
          </mxGeometry>
        </mxCell>
        <mxCell id="xtBjh4fdduiDJycLXYyy-215" value="" style="ellipse;whiteSpace=wrap;html=1;aspect=fixed;fillColor=#000000;fontColor=#333333;strokeColor=#000000;" parent="1" vertex="1">
          <mxGeometry x="1081" y="275.25" width="20" height="20" as="geometry" />
        </mxCell>
        <mxCell id="xtBjh4fdduiDJycLXYyy-216" value="" style="curved=1;endArrow=none;html=1;rounded=0;endFill=0;exitX=0;exitY=0.5;exitDx=0;exitDy=0;strokeColor=#000000;" parent="1" source="xtBjh4fdduiDJycLXYyy-215" edge="1">
          <mxGeometry width="50" height="50" relative="1" as="geometry">
            <mxPoint x="1040" y="189" as="sourcePoint" />
            <mxPoint x="980" y="285" as="targetPoint" />
            <Array as="points" />
          </mxGeometry>
        </mxCell>
        <mxCell id="xtBjh4fdduiDJycLXYyy-220" value="Result-MCP" style="shape=rhombus;perimeter=rhombusPerimeter;whiteSpace=wrap;html=1;align=center;strokeColor=#000000;fillColor=#f5f5f5;fontColor=#333333;" parent="1" vertex="1">
          <mxGeometry x="590" y="795" width="120" height="60" as="geometry" />
        </mxCell>
        <mxCell id="xtBjh4fdduiDJycLXYyy-221" value="" style="endArrow=none;html=1;rounded=0;strokeColor=#000000;fontColor=#000000;exitX=1;exitY=0.5;exitDx=0;exitDy=0;entryX=0;entryY=0.5;entryDx=0;entryDy=0;" parent="1" source="xtBjh4fdduiDJycLXYyy-12" target="xtBjh4fdduiDJycLXYyy-220" edge="1">
          <mxGeometry relative="1" as="geometry">
            <mxPoint x="575" y="695" as="sourcePoint" />
            <mxPoint x="625" y="815" as="targetPoint" />
            <Array as="points" />
          </mxGeometry>
        </mxCell>
        <mxCell id="xtBjh4fdduiDJycLXYyy-222" value="(1,1)" style="resizable=0;html=1;whiteSpace=wrap;align=right;verticalAlign=bottom;fontColor=#000000;" parent="xtBjh4fdduiDJycLXYyy-221" connectable="0" vertex="1">
          <mxGeometry x="1" relative="1" as="geometry">
            <mxPoint as="offset" />
          </mxGeometry>
        </mxCell>
        <mxCell id="xtBjh4fdduiDJycLXYyy-223" value="" style="ellipse;whiteSpace=wrap;html=1;aspect=fixed;fillColor=#000000;fontColor=#333333;strokeColor=#000000;" parent="1" vertex="1">
          <mxGeometry x="495" y="785" width="20" height="20" as="geometry" />
        </mxCell>
        <mxCell id="xtBjh4fdduiDJycLXYyy-224" value="" style="curved=1;endArrow=none;html=1;rounded=0;endFill=0;exitX=0.5;exitY=1;exitDx=0;exitDy=0;strokeColor=#000000;" parent="1" source="xtBjh4fdduiDJycLXYyy-223" edge="1">
          <mxGeometry width="50" height="50" relative="1" as="geometry">
            <mxPoint x="575" y="762.5" as="sourcePoint" />
            <mxPoint x="425" y="865" as="targetPoint" />
            <Array as="points">
              <mxPoint x="510" y="870" />
            </Array>
          </mxGeometry>
        </mxCell>
        <mxCell id="xtBjh4fdduiDJycLXYyy-225" value="" style="endArrow=none;html=1;rounded=0;strokeColor=#000000;fontColor=#000000;entryX=1;entryY=0;entryDx=0;entryDy=0;exitX=0;exitY=0.75;exitDx=0;exitDy=0;" parent="1" source="xtBjh4fdduiDJycLXYyy-8" target="xtBjh4fdduiDJycLXYyy-220" edge="1">
          <mxGeometry relative="1" as="geometry">
            <mxPoint x="650.5" y="805" as="sourcePoint" />
            <mxPoint x="600" y="885" as="targetPoint" />
            <Array as="points">
              <mxPoint x="410" y="380" />
              <mxPoint x="410" y="680" />
              <mxPoint x="680" y="680" />
            </Array>
          </mxGeometry>
        </mxCell>
        <mxCell id="xtBjh4fdduiDJycLXYyy-226" value="(1,N)" style="resizable=0;html=1;whiteSpace=wrap;align=right;verticalAlign=bottom;fontColor=#000000;" parent="xtBjh4fdduiDJycLXYyy-225" connectable="0" vertex="1">
          <mxGeometry x="1" relative="1" as="geometry">
            <mxPoint x="30" as="offset" />
          </mxGeometry>
        </mxCell>
        <mxCell id="xtBjh4fdduiDJycLXYyy-230" value="" style="endArrow=none;html=1;rounded=0;strokeColor=#000000;fontColor=#000000;exitX=0;exitY=0.75;exitDx=0;exitDy=0;entryX=0;entryY=0;entryDx=0;entryDy=0;" parent="1" source="xtBjh4fdduiDJycLXYyy-10" target="xtBjh4fdduiDJycLXYyy-220" edge="1">
          <mxGeometry relative="1" as="geometry">
            <mxPoint x="775" y="875" as="sourcePoint" />
            <mxPoint x="600" y="820" as="targetPoint" />
            <Array as="points">
              <mxPoint x="420" y="530" />
              <mxPoint x="420" y="730" />
              <mxPoint x="620" y="730" />
            </Array>
          </mxGeometry>
        </mxCell>
        <mxCell id="xtBjh4fdduiDJycLXYyy-231" value="(1,N)" style="resizable=0;html=1;whiteSpace=wrap;align=right;verticalAlign=bottom;fontColor=#000000;" parent="xtBjh4fdduiDJycLXYyy-230" connectable="0" vertex="1">
          <mxGeometry x="1" relative="1" as="geometry">
            <mxPoint x="30" y="-15" as="offset" />
          </mxGeometry>
        </mxCell>
        <mxCell id="xtBjh4fdduiDJycLXYyy-233" value="" style="endArrow=none;html=1;rounded=0;strokeColor=#000000;fontColor=#000000;entryX=0.5;entryY=1;entryDx=0;entryDy=0;exitX=0;exitY=0.5;exitDx=0;exitDy=0;" parent="1" source="xtBjh4fdduiDJycLXYyy-5" target="xtBjh4fdduiDJycLXYyy-220" edge="1">
          <mxGeometry relative="1" as="geometry">
            <mxPoint x="10" y="260" as="sourcePoint" />
            <mxPoint x="650" y="985" as="targetPoint" />
            <Array as="points">
              <mxPoint x="10" y="260" />
              <mxPoint x="10" y="920" />
              <mxPoint x="650" y="920" />
            </Array>
          </mxGeometry>
        </mxCell>
        <mxCell id="xtBjh4fdduiDJycLXYyy-234" value="(1,N)" style="resizable=0;html=1;whiteSpace=wrap;align=right;verticalAlign=bottom;fontColor=#000000;" parent="xtBjh4fdduiDJycLXYyy-233" connectable="0" vertex="1">
          <mxGeometry x="1" relative="1" as="geometry">
            <mxPoint x="30" y="20" as="offset" />
          </mxGeometry>
        </mxCell>
        <mxCell id="xtBjh4fdduiDJycLXYyy-237" value="VisitPrenotation" style="whiteSpace=wrap;html=1;align=center;fillColor=#f5f5f5;fontColor=#333333;strokeColor=#000000;" parent="1" vertex="1">
          <mxGeometry x="40" y="805" width="100" height="40" as="geometry" />
        </mxCell>
        <mxCell id="xtBjh4fdduiDJycLXYyy-238" value="" style="endArrow=none;html=1;rounded=0;strokeColor=#18141d;entryX=0.5;entryY=0;entryDx=0;entryDy=0;exitX=0.5;exitY=1;exitDx=0;exitDy=0;" parent="1" source="xtBjh4fdduiDJycLXYyy-239" target="xtBjh4fdduiDJycLXYyy-237" edge="1">
          <mxGeometry width="50" height="50" relative="1" as="geometry">
            <mxPoint x="90" y="685" as="sourcePoint" />
            <mxPoint x="80" y="725" as="targetPoint" />
          </mxGeometry>
        </mxCell>
        <mxCell id="xtBjh4fdduiDJycLXYyy-239" value="" style="ellipse;whiteSpace=wrap;html=1;aspect=fixed;fillColor=#f5f5f5;fontColor=#333333;strokeColor=#000000;" parent="1" vertex="1">
          <mxGeometry x="80" y="755" width="20" height="20" as="geometry" />
        </mxCell>
        <mxCell id="xtBjh4fdduiDJycLXYyy-240" value="DateTime" style="text;html=1;align=center;verticalAlign=middle;whiteSpace=wrap;rounded=0;fontColor=#000000;" parent="1" vertex="1">
          <mxGeometry x="65" y="735" width="50" height="20" as="geometry" />
        </mxCell>
        <mxCell id="xtBjh4fdduiDJycLXYyy-242" value="" style="endArrow=none;html=1;rounded=0;strokeColor=#000000;fontColor=#000000;entryX=0;entryY=0.5;entryDx=0;entryDy=0;exitX=1;exitY=0.5;exitDx=0;exitDy=0;" parent="1" source="xtBjh4fdduiDJycLXYyy-237" target="xtBjh4fdduiDJycLXYyy-245" edge="1">
          <mxGeometry relative="1" as="geometry">
            <mxPoint x="170" y="825" as="sourcePoint" />
            <mxPoint x="680" y="855" as="targetPoint" />
            <Array as="points" />
          </mxGeometry>
        </mxCell>
        <mxCell id="xtBjh4fdduiDJycLXYyy-243" value="(1,N)" style="resizable=0;html=1;whiteSpace=wrap;align=right;verticalAlign=bottom;fontColor=#000000;" parent="xtBjh4fdduiDJycLXYyy-242" connectable="0" vertex="1">
          <mxGeometry x="1" relative="1" as="geometry">
            <mxPoint as="offset" />
          </mxGeometry>
        </mxCell>
        <mxCell id="xtBjh4fdduiDJycLXYyy-245" value="Visit-MCP" style="shape=rhombus;perimeter=rhombusPerimeter;whiteSpace=wrap;html=1;align=center;strokeColor=#000000;fillColor=#f5f5f5;fontColor=#333333;" parent="1" vertex="1">
          <mxGeometry x="190" y="795" width="120" height="60" as="geometry" />
        </mxCell>
        <mxCell id="xtBjh4fdduiDJycLXYyy-249" value="" style="endArrow=none;html=1;rounded=0;strokeColor=#000000;fontColor=#000000;entryX=0.5;entryY=1;entryDx=0;entryDy=0;exitX=0;exitY=0.75;exitDx=0;exitDy=0;" parent="1" source="xtBjh4fdduiDJycLXYyy-5" target="8T9HnyYNT7zKvpUFhSAX-64" edge="1">
          <mxGeometry relative="1" as="geometry">
            <mxPoint x="10" y="880" as="sourcePoint" />
            <mxPoint x="740" y="885" as="targetPoint" />
            <Array as="points">
              <mxPoint x="20" y="270" />
              <mxPoint x="20" y="910" />
              <mxPoint x="155" y="910" />
            </Array>
          </mxGeometry>
        </mxCell>
        <mxCell id="xtBjh4fdduiDJycLXYyy-250" value="(0,N)" style="resizable=0;html=1;whiteSpace=wrap;align=right;verticalAlign=bottom;fontColor=#000000;" parent="xtBjh4fdduiDJycLXYyy-249" connectable="0" vertex="1">
          <mxGeometry x="1" relative="1" as="geometry">
            <mxPoint x="31" y="16" as="offset" />
          </mxGeometry>
        </mxCell>
        <mxCell id="xtBjh4fdduiDJycLXYyy-251" value="" style="endArrow=none;html=1;rounded=0;strokeColor=#000000;fontColor=#000000;entryX=0.5;entryY=0;entryDx=0;entryDy=0;exitX=0;exitY=0.25;exitDx=0;exitDy=0;" parent="1" source="xtBjh4fdduiDJycLXYyy-8" target="xtBjh4fdduiDJycLXYyy-245" edge="1">
          <mxGeometry relative="1" as="geometry">
            <mxPoint x="230" y="755" as="sourcePoint" />
            <mxPoint x="240" y="865" as="targetPoint" />
            <Array as="points">
              <mxPoint x="400" y="360" />
              <mxPoint x="400" y="680" />
              <mxPoint x="250" y="680" />
            </Array>
          </mxGeometry>
        </mxCell>
        <mxCell id="xtBjh4fdduiDJycLXYyy-252" value="(1,N)" style="resizable=0;html=1;whiteSpace=wrap;align=right;verticalAlign=bottom;fontColor=#000000;" parent="xtBjh4fdduiDJycLXYyy-251" connectable="0" vertex="1">
          <mxGeometry x="1" relative="1" as="geometry">
            <mxPoint x="30" as="offset" />
          </mxGeometry>
        </mxCell>
        <mxCell id="xtBjh4fdduiDJycLXYyy-253" value="" style="endArrow=none;html=1;rounded=0;strokeColor=#000000;fontColor=#000000;entryX=1;entryY=0.5;entryDx=0;entryDy=0;exitX=0;exitY=0.25;exitDx=0;exitDy=0;" parent="1" source="xtBjh4fdduiDJycLXYyy-10" target="xtBjh4fdduiDJycLXYyy-245" edge="1">
          <mxGeometry relative="1" as="geometry">
            <mxPoint x="330" y="755" as="sourcePoint" />
            <mxPoint x="240" y="805" as="targetPoint" />
            <Array as="points">
              <mxPoint x="380" y="510" />
              <mxPoint x="380" y="825" />
            </Array>
          </mxGeometry>
        </mxCell>
        <mxCell id="xtBjh4fdduiDJycLXYyy-254" value="(1,N)" style="resizable=0;html=1;whiteSpace=wrap;align=right;verticalAlign=bottom;fontColor=#000000;" parent="xtBjh4fdduiDJycLXYyy-253" connectable="0" vertex="1">
          <mxGeometry x="1" relative="1" as="geometry">
            <mxPoint x="30" as="offset" />
          </mxGeometry>
        </mxCell>
        <mxCell id="xtBjh4fdduiDJycLXYyy-255" value="" style="ellipse;whiteSpace=wrap;html=1;aspect=fixed;fillColor=#000000;fontColor=#333333;strokeColor=#000000;" parent="1" vertex="1">
          <mxGeometry x="50" y="775" width="20" height="20" as="geometry" />
        </mxCell>
        <mxCell id="xtBjh4fdduiDJycLXYyy-256" value="" style="curved=1;endArrow=none;html=1;rounded=0;endFill=0;exitX=1;exitY=0.5;exitDx=0;exitDy=0;strokeColor=#000000;" parent="1" source="xtBjh4fdduiDJycLXYyy-255" edge="1">
          <mxGeometry width="50" height="50" relative="1" as="geometry">
            <mxPoint x="130" y="752.5" as="sourcePoint" />
            <mxPoint x="160" y="845" as="targetPoint" />
            <Array as="points">
              <mxPoint x="160" y="775" />
            </Array>
          </mxGeometry>
        </mxCell>
        <mxCell id="I80M-G1sx2S55GYAkKX_-1" value="C-PastE" style="shape=rhombus;perimeter=rhombusPerimeter;whiteSpace=wrap;html=1;align=center;strokeColor=#000000;fillColor=#f5f5f5;fontColor=#333333;" parent="1" vertex="1">
          <mxGeometry x="810" y="184.25" width="80" height="32" as="geometry" />
        </mxCell>
        <mxCell id="I80M-G1sx2S55GYAkKX_-2" value="" style="endArrow=none;html=1;rounded=0;strokeColor=#000000;fontColor=#000000;exitX=1;exitY=0.25;exitDx=0;exitDy=0;entryX=0;entryY=0.5;entryDx=0;entryDy=0;" parent="1" source="xtBjh4fdduiDJycLXYyy-10" target="I80M-G1sx2S55GYAkKX_-1" edge="1">
          <mxGeometry relative="1" as="geometry">
            <mxPoint x="741" y="487.5" as="sourcePoint" />
            <mxPoint x="799" y="456.5" as="targetPoint" />
            <Array as="points">
              <mxPoint x="760" y="510" />
              <mxPoint x="760" y="200" />
            </Array>
          </mxGeometry>
        </mxCell>
        <mxCell id="I80M-G1sx2S55GYAkKX_-3" value="(0,N)" style="resizable=0;html=1;whiteSpace=wrap;align=right;verticalAlign=bottom;fontColor=#000000;" parent="I80M-G1sx2S55GYAkKX_-2" connectable="0" vertex="1">
          <mxGeometry x="1" relative="1" as="geometry">
            <mxPoint as="offset" />
          </mxGeometry>
        </mxCell>
        <mxCell id="I80M-G1sx2S55GYAkKX_-4" value="" style="endArrow=none;html=1;rounded=0;strokeColor=#000000;fontColor=#000000;exitX=0.25;exitY=0;exitDx=0;exitDy=0;entryX=1;entryY=0.5;entryDx=0;entryDy=0;" parent="1" source="xtBjh4fdduiDJycLXYyy-195" target="I80M-G1sx2S55GYAkKX_-1" edge="1">
          <mxGeometry relative="1" as="geometry">
            <mxPoint x="1120" y="245.25" as="sourcePoint" />
            <mxPoint x="930" y="609.25" as="targetPoint" />
            <Array as="points">
              <mxPoint x="1100" y="130.25" />
              <mxPoint x="1030" y="130.25" />
              <mxPoint x="1030" y="200.25" />
            </Array>
          </mxGeometry>
        </mxCell>
        <mxCell id="I80M-G1sx2S55GYAkKX_-5" value="(1,1)" style="resizable=0;html=1;whiteSpace=wrap;align=right;verticalAlign=bottom;fontColor=#000000;" parent="I80M-G1sx2S55GYAkKX_-4" connectable="0" vertex="1">
          <mxGeometry x="1" relative="1" as="geometry">
            <mxPoint x="30" as="offset" />
          </mxGeometry>
        </mxCell>
        <mxCell id="I80M-G1sx2S55GYAkKX_-7" value="" style="ellipse;whiteSpace=wrap;html=1;aspect=fixed;fillColor=#f5f5f5;fontColor=#333333;strokeColor=#000000;" parent="1" vertex="1">
          <mxGeometry x="90" y="377.75" width="20" height="20" as="geometry" />
        </mxCell>
        <mxCell id="I80M-G1sx2S55GYAkKX_-8" value="Type" style="text;html=1;align=center;verticalAlign=middle;whiteSpace=wrap;rounded=0;fontColor=#000000;" parent="1" vertex="1">
          <mxGeometry x="85" y="357.75" width="30" height="20" as="geometry" />
        </mxCell>
        <mxCell id="I80M-G1sx2S55GYAkKX_-14" value="" style="endArrow=none;html=1;rounded=0;strokeColor=#000000;fontColor=#000000;exitX=0.5;exitY=0;exitDx=0;exitDy=0;entryX=0.5;entryY=1;entryDx=0;entryDy=0;" parent="1" source="xtBjh4fdduiDJycLXYyy-87" target="I80M-G1sx2S55GYAkKX_-7" edge="1">
          <mxGeometry relative="1" as="geometry">
            <mxPoint x="130" y="500.75" as="sourcePoint" />
            <mxPoint x="80" y="510" as="targetPoint" />
            <Array as="points" />
          </mxGeometry>
        </mxCell>
        <mxCell id="I80M-G1sx2S55GYAkKX_-16" value="" style="ellipse;whiteSpace=wrap;html=1;aspect=fixed;fillColor=#FFFFFF;fontColor=#333333;strokeColor=#000000;" parent="1" vertex="1">
          <mxGeometry x="990" y="360.25" width="20" height="20" as="geometry" />
        </mxCell>
        <mxCell id="I80M-G1sx2S55GYAkKX_-17" value="Salary" style="text;html=1;align=center;verticalAlign=middle;whiteSpace=wrap;rounded=0;fontColor=#000000;" parent="1" vertex="1">
          <mxGeometry x="980" y="380.25" width="40" height="15" as="geometry" />
        </mxCell>
        <mxCell id="I80M-G1sx2S55GYAkKX_-18" value="" style="endArrow=none;html=1;rounded=0;strokeColor=#18141d;entryX=0.5;entryY=0;entryDx=0;entryDy=0;exitX=0.5;exitY=1;exitDx=0;exitDy=0;" parent="1" source="xtBjh4fdduiDJycLXYyy-196" target="I80M-G1sx2S55GYAkKX_-16" edge="1">
          <mxGeometry width="50" height="50" relative="1" as="geometry">
            <mxPoint x="964" y="347.75" as="sourcePoint" />
            <mxPoint x="957.75" y="206.5" as="targetPoint" />
            <Array as="points" />
          </mxGeometry>
        </mxCell>
        <mxCell id="I80M-G1sx2S55GYAkKX_-20" value="" style="ellipse;whiteSpace=wrap;html=1;aspect=fixed;fillColor=#f5f5f5;fontColor=#333333;strokeColor=#000000;" parent="1" vertex="1">
          <mxGeometry x="190" y="280" width="20" height="20" as="geometry" />
        </mxCell>
        <mxCell id="I80M-G1sx2S55GYAkKX_-21" value="PostCode" style="text;html=1;align=center;verticalAlign=middle;whiteSpace=wrap;rounded=0;fontColor=#000000;" parent="1" vertex="1">
          <mxGeometry x="170" y="300" width="60" height="20" as="geometry" />
        </mxCell>
        <mxCell id="I80M-G1sx2S55GYAkKX_-22" value="" style="endArrow=none;html=1;rounded=0;strokeColor=#18141d;entryX=1;entryY=1;entryDx=0;entryDy=0;exitX=0;exitY=0;exitDx=0;exitDy=0;" parent="1" source="I80M-G1sx2S55GYAkKX_-20" target="xtBjh4fdduiDJycLXYyy-5" edge="1">
          <mxGeometry width="50" height="50" relative="1" as="geometry">
            <mxPoint x="160" y="275" as="sourcePoint" />
            <mxPoint x="160" y="305" as="targetPoint" />
          </mxGeometry>
        </mxCell>
        <mxCell id="I80M-G1sx2S55GYAkKX_-23" value="" style="ellipse;whiteSpace=wrap;html=1;aspect=fixed;fillColor=#f5f5f5;fontColor=#333333;strokeColor=#000000;" parent="1" vertex="1">
          <mxGeometry x="50" y="280" width="20" height="20" as="geometry" />
        </mxCell>
        <mxCell id="I80M-G1sx2S55GYAkKX_-24" value="Street" style="text;html=1;align=center;verticalAlign=middle;whiteSpace=wrap;rounded=0;fontColor=#000000;" parent="1" vertex="1">
          <mxGeometry x="50" y="300" width="20" height="20" as="geometry" />
        </mxCell>
        <mxCell id="I80M-G1sx2S55GYAkKX_-25" value="" style="endArrow=none;html=1;rounded=0;strokeColor=#18141d;entryX=0;entryY=1;entryDx=0;entryDy=0;exitX=1;exitY=0;exitDx=0;exitDy=0;" parent="1" source="I80M-G1sx2S55GYAkKX_-23" target="xtBjh4fdduiDJycLXYyy-5" edge="1">
          <mxGeometry width="50" height="50" relative="1" as="geometry">
            <mxPoint x="100" y="270" as="sourcePoint" />
            <mxPoint x="100" y="305" as="targetPoint" />
          </mxGeometry>
        </mxCell>
        <mxCell id="I80M-G1sx2S55GYAkKX_-26" value="" style="ellipse;whiteSpace=wrap;html=1;aspect=fixed;fillColor=#f5f5f5;fontColor=#333333;strokeColor=#000000;" parent="1" vertex="1">
          <mxGeometry x="90" y="295" width="20" height="20" as="geometry" />
        </mxCell>
        <mxCell id="I80M-G1sx2S55GYAkKX_-27" value="City" style="text;html=1;align=center;verticalAlign=middle;whiteSpace=wrap;rounded=0;fontColor=#000000;" parent="1" vertex="1">
          <mxGeometry x="90" y="315" width="20" height="20" as="geometry" />
        </mxCell>
        <mxCell id="I80M-G1sx2S55GYAkKX_-28" value="" style="endArrow=none;html=1;rounded=0;strokeColor=#18141d;entryX=0.25;entryY=1;entryDx=0;entryDy=0;exitX=0.5;exitY=0;exitDx=0;exitDy=0;" parent="1" source="I80M-G1sx2S55GYAkKX_-26" target="xtBjh4fdduiDJycLXYyy-5" edge="1">
          <mxGeometry width="50" height="50" relative="1" as="geometry">
            <mxPoint x="130" y="280" as="sourcePoint" />
            <mxPoint x="108.64490701502984" y="315.53517920591855" as="targetPoint" />
          </mxGeometry>
        </mxCell>
        <mxCell id="I80M-G1sx2S55GYAkKX_-29" value="" style="ellipse;whiteSpace=wrap;html=1;aspect=fixed;fillColor=#f5f5f5;fontColor=#333333;strokeColor=#000000;" parent="1" vertex="1">
          <mxGeometry x="150" y="295" width="20" height="20" as="geometry" />
        </mxCell>
        <mxCell id="I80M-G1sx2S55GYAkKX_-30" value="Country" style="text;html=1;align=center;verticalAlign=middle;whiteSpace=wrap;rounded=0;fontColor=#000000;" parent="1" vertex="1">
          <mxGeometry x="140" y="315" width="40" height="20" as="geometry" />
        </mxCell>
        <mxCell id="I80M-G1sx2S55GYAkKX_-31" value="" style="endArrow=none;html=1;rounded=0;strokeColor=#18141d;entryX=0.75;entryY=1;entryDx=0;entryDy=0;exitX=0.5;exitY=0;exitDx=0;exitDy=0;" parent="1" source="I80M-G1sx2S55GYAkKX_-29" target="xtBjh4fdduiDJycLXYyy-5" edge="1">
          <mxGeometry width="50" height="50" relative="1" as="geometry">
            <mxPoint x="110" y="348" as="sourcePoint" />
            <mxPoint x="151.35509298497016" y="315.53517920591867" as="targetPoint" />
          </mxGeometry>
        </mxCell>
        <mxCell id="I80M-G1sx2S55GYAkKX_-35" value="" style="ellipse;whiteSpace=wrap;html=1;aspect=fixed;fillColor=#f5f5f5;fontColor=#333333;strokeColor=#000000;" parent="1" vertex="1">
          <mxGeometry x="585.17" y="540" width="20" height="20" as="geometry" />
        </mxCell>
        <mxCell id="I80M-G1sx2S55GYAkKX_-36" value="" style="endArrow=none;html=1;rounded=0;strokeColor=#18141d;entryX=1;entryY=1;entryDx=0;entryDy=0;exitX=0;exitY=0;exitDx=0;exitDy=0;" parent="1" source="I80M-G1sx2S55GYAkKX_-35" target="xtBjh4fdduiDJycLXYyy-10" edge="1">
          <mxGeometry width="50" height="50" relative="1" as="geometry">
            <mxPoint x="595.170000000009" y="566.75" as="sourcePoint" />
            <mxPoint x="555.1700000000003" y="566.75" as="targetPoint" />
          </mxGeometry>
        </mxCell>
        <mxCell id="I80M-G1sx2S55GYAkKX_-37" value="" style="ellipse;whiteSpace=wrap;html=1;aspect=fixed;fillColor=#f5f5f5;fontColor=#333333;strokeColor=#000000;" parent="1" vertex="1">
          <mxGeometry x="450.17" y="540" width="20" height="20" as="geometry" />
        </mxCell>
        <mxCell id="I80M-G1sx2S55GYAkKX_-38" value="Street" style="text;html=1;align=center;verticalAlign=middle;whiteSpace=wrap;rounded=0;fontColor=#000000;" parent="1" vertex="1">
          <mxGeometry x="450.17" y="560" width="20" height="20" as="geometry" />
        </mxCell>
        <mxCell id="I80M-G1sx2S55GYAkKX_-39" value="" style="endArrow=none;html=1;rounded=0;strokeColor=#18141d;exitX=1;exitY=0;exitDx=0;exitDy=0;entryX=0;entryY=1;entryDx=0;entryDy=0;" parent="1" source="I80M-G1sx2S55GYAkKX_-37" target="xtBjh4fdduiDJycLXYyy-10" edge="1">
          <mxGeometry width="50" height="50" relative="1" as="geometry">
            <mxPoint x="495.17" y="531.75" as="sourcePoint" />
            <mxPoint x="495.5" y="567" as="targetPoint" />
          </mxGeometry>
        </mxCell>
        <mxCell id="I80M-G1sx2S55GYAkKX_-40" value="" style="ellipse;whiteSpace=wrap;html=1;aspect=fixed;fillColor=#f5f5f5;fontColor=#333333;strokeColor=#000000;" parent="1" vertex="1">
          <mxGeometry x="487.5" y="560" width="20" height="20" as="geometry" />
        </mxCell>
        <mxCell id="I80M-G1sx2S55GYAkKX_-41" value="City" style="text;html=1;align=center;verticalAlign=middle;whiteSpace=wrap;rounded=0;fontColor=#000000;" parent="1" vertex="1">
          <mxGeometry x="487.5" y="580" width="20" height="20" as="geometry" />
        </mxCell>
        <mxCell id="I80M-G1sx2S55GYAkKX_-42" value="" style="endArrow=none;html=1;rounded=0;strokeColor=#18141d;entryX=0.25;entryY=1;entryDx=0;entryDy=0;exitX=0.5;exitY=0;exitDx=0;exitDy=0;" parent="1" source="I80M-G1sx2S55GYAkKX_-40" target="xtBjh4fdduiDJycLXYyy-10" edge="1">
          <mxGeometry width="50" height="50" relative="1" as="geometry">
            <mxPoint x="525.17" y="541.75" as="sourcePoint" />
            <mxPoint x="503.7087146238375" y="577.2310928581262" as="targetPoint" />
          </mxGeometry>
        </mxCell>
        <mxCell id="I80M-G1sx2S55GYAkKX_-43" value="" style="ellipse;whiteSpace=wrap;html=1;aspect=fixed;fillColor=#f5f5f5;fontColor=#333333;strokeColor=#000000;" parent="1" vertex="1">
          <mxGeometry x="537.5" y="560" width="20" height="20" as="geometry" />
        </mxCell>
        <mxCell id="I80M-G1sx2S55GYAkKX_-44" value="Country" style="text;html=1;align=center;verticalAlign=middle;whiteSpace=wrap;rounded=0;fontColor=#000000;" parent="1" vertex="1">
          <mxGeometry x="527.5" y="580" width="40" height="20" as="geometry" />
        </mxCell>
        <mxCell id="I80M-G1sx2S55GYAkKX_-45" value="" style="endArrow=none;html=1;rounded=0;strokeColor=#18141d;entryX=0.75;entryY=1;entryDx=0;entryDy=0;exitX=0.5;exitY=0;exitDx=0;exitDy=0;" parent="1" source="I80M-G1sx2S55GYAkKX_-43" target="xtBjh4fdduiDJycLXYyy-10" edge="1">
          <mxGeometry width="50" height="50" relative="1" as="geometry">
            <mxPoint x="505.17" y="609.75" as="sourcePoint" />
            <mxPoint x="546.6312853761631" y="577.231092858126" as="targetPoint" />
          </mxGeometry>
        </mxCell>
        <mxCell id="I80M-G1sx2S55GYAkKX_-48" value="PostCode" style="text;html=1;align=center;verticalAlign=middle;whiteSpace=wrap;rounded=0;fontColor=#000000;" parent="1" vertex="1">
          <mxGeometry x="565.17" y="560" width="60" height="20" as="geometry" />
        </mxCell>
        <mxCell id="I80M-G1sx2S55GYAkKX_-49" value="Clinic" style="text;align=center;verticalAlign=middle;rounded=0;fontColor=#000000;labelBorderColor=none;spacingTop=0;glass=0;fillColor=none;fillStyle=auto;fontStyle=0;labelBackgroundColor=none;textOpacity=50;whiteSpace=wrap;html=1;" parent="1" vertex="1">
          <mxGeometry x="560" y="735" width="60" height="20" as="geometry" />
        </mxCell>
        <mxCell id="I80M-G1sx2S55GYAkKX_-50" value="Medic" style="text;align=center;verticalAlign=middle;rounded=0;fontColor=#000000;labelBorderColor=none;spacingTop=0;glass=0;fillColor=none;fillStyle=auto;fontStyle=0;labelBackgroundColor=none;textOpacity=50;whiteSpace=wrap;html=1;" parent="1" vertex="1">
          <mxGeometry x="680" y="775" width="60" height="20" as="geometry" />
        </mxCell>
        <mxCell id="I80M-G1sx2S55GYAkKX_-51" value="Patient" style="text;align=center;verticalAlign=middle;rounded=0;fontColor=#000000;labelBorderColor=none;spacingTop=0;glass=0;fillColor=none;fillStyle=auto;fontStyle=0;labelBackgroundColor=none;textOpacity=50;whiteSpace=wrap;html=1;" parent="1" vertex="1">
          <mxGeometry x="587.67" y="895" width="60" height="20" as="geometry" />
        </mxCell>
        <mxCell id="I80M-G1sx2S55GYAkKX_-55" value="Patient" style="text;align=center;verticalAlign=middle;rounded=0;fontColor=#000000;labelBorderColor=none;spacingTop=0;glass=0;fillColor=none;fillStyle=auto;fontStyle=0;labelBackgroundColor=none;textOpacity=50;whiteSpace=wrap;html=1;" parent="1" vertex="1">
          <mxGeometry x="85" y="890" width="60" height="20" as="geometry" />
        </mxCell>
        <mxCell id="I80M-G1sx2S55GYAkKX_-56" value="Medic" style="text;align=center;verticalAlign=middle;rounded=0;fontColor=#000000;labelBorderColor=none;spacingTop=0;glass=0;fillColor=none;fillStyle=auto;fontStyle=0;labelBackgroundColor=none;textOpacity=50;whiteSpace=wrap;html=1;" parent="1" vertex="1">
          <mxGeometry x="200" y="775" width="60" height="20" as="geometry" />
        </mxCell>
        <mxCell id="I80M-G1sx2S55GYAkKX_-57" value="Clinic" style="text;align=center;verticalAlign=middle;rounded=0;fontColor=#000000;labelBorderColor=none;spacingTop=0;glass=0;fillColor=none;fillStyle=auto;fontStyle=0;labelBackgroundColor=none;textOpacity=50;whiteSpace=wrap;html=1;" parent="1" vertex="1">
          <mxGeometry x="300" y="825" width="60" height="20" as="geometry" />
        </mxCell>
        <mxCell id="8T9HnyYNT7zKvpUFhSAX-2" value="M-E" style="shape=rhombus;perimeter=rhombusPerimeter;whiteSpace=wrap;html=1;align=center;strokeColor=#000000;fillColor=#f5f5f5;fontColor=#333333;" vertex="1" parent="1">
          <mxGeometry x="481.15999999999997" y="284" width="37.67" height="36" as="geometry" />
        </mxCell>
        <mxCell id="8T9HnyYNT7zKvpUFhSAX-3" value="A-E" style="shape=rhombus;perimeter=rhombusPerimeter;whiteSpace=wrap;html=1;align=center;strokeColor=#000000;fillColor=#f5f5f5;fontColor=#333333;" vertex="1" parent="1">
          <mxGeometry x="681.17" y="284" width="37.67" height="36" as="geometry" />
        </mxCell>
        <mxCell id="8T9HnyYNT7zKvpUFhSAX-5" value="" style="endArrow=none;html=1;rounded=0;strokeColor=#000000;fontColor=#000000;entryX=0.5;entryY=1;entryDx=0;entryDy=0;exitX=0.5;exitY=0;exitDx=0;exitDy=0;" edge="1" parent="1" source="xtBjh4fdduiDJycLXYyy-8" target="8T9HnyYNT7zKvpUFhSAX-2">
          <mxGeometry relative="1" as="geometry">
            <mxPoint x="490" y="330" as="sourcePoint" />
            <mxPoint x="530" y="300" as="targetPoint" />
            <Array as="points" />
          </mxGeometry>
        </mxCell>
        <mxCell id="8T9HnyYNT7zKvpUFhSAX-6" value="(1,1)" style="resizable=0;html=1;whiteSpace=wrap;align=right;verticalAlign=bottom;fontColor=#000000;" connectable="0" vertex="1" parent="8T9HnyYNT7zKvpUFhSAX-5">
          <mxGeometry x="1" relative="1" as="geometry">
            <mxPoint x="28" y="15" as="offset" />
          </mxGeometry>
        </mxCell>
        <mxCell id="8T9HnyYNT7zKvpUFhSAX-7" value="" style="endArrow=none;html=1;rounded=0;strokeColor=#000000;fontColor=#000000;entryX=0.5;entryY=1;entryDx=0;entryDy=0;exitX=0.5;exitY=0;exitDx=0;exitDy=0;" edge="1" parent="1" source="xtBjh4fdduiDJycLXYyy-9" target="8T9HnyYNT7zKvpUFhSAX-3">
          <mxGeometry relative="1" as="geometry">
            <mxPoint x="510" y="360" as="sourcePoint" />
            <mxPoint x="528" y="336" as="targetPoint" />
            <Array as="points" />
          </mxGeometry>
        </mxCell>
        <mxCell id="8T9HnyYNT7zKvpUFhSAX-8" value="(1,1)" style="resizable=0;html=1;whiteSpace=wrap;align=right;verticalAlign=bottom;fontColor=#000000;" connectable="0" vertex="1" parent="8T9HnyYNT7zKvpUFhSAX-7">
          <mxGeometry x="1" relative="1" as="geometry">
            <mxPoint x="30" y="15" as="offset" />
          </mxGeometry>
        </mxCell>
        <mxCell id="8T9HnyYNT7zKvpUFhSAX-9" value="" style="endArrow=none;html=1;rounded=0;strokeColor=#000000;fontColor=#000000;entryX=1;entryY=0.5;entryDx=0;entryDy=0;exitX=0;exitY=1;exitDx=0;exitDy=0;" edge="1" parent="1" source="xtBjh4fdduiDJycLXYyy-6" target="8T9HnyYNT7zKvpUFhSAX-2">
          <mxGeometry relative="1" as="geometry">
            <mxPoint x="510" y="360" as="sourcePoint" />
            <mxPoint x="510" y="330" as="targetPoint" />
            <Array as="points" />
          </mxGeometry>
        </mxCell>
        <mxCell id="8T9HnyYNT7zKvpUFhSAX-10" value="(0,1)" style="resizable=0;html=1;whiteSpace=wrap;align=right;verticalAlign=bottom;fontColor=#000000;" connectable="0" vertex="1" parent="8T9HnyYNT7zKvpUFhSAX-9">
          <mxGeometry x="1" relative="1" as="geometry">
            <mxPoint x="21" y="-7" as="offset" />
          </mxGeometry>
        </mxCell>
        <mxCell id="8T9HnyYNT7zKvpUFhSAX-11" value="" style="endArrow=none;html=1;rounded=0;strokeColor=#000000;fontColor=#000000;entryX=0;entryY=0.5;entryDx=0;entryDy=0;exitX=1;exitY=1;exitDx=0;exitDy=0;" edge="1" parent="1" source="xtBjh4fdduiDJycLXYyy-6" target="8T9HnyYNT7zKvpUFhSAX-3">
          <mxGeometry relative="1" as="geometry">
            <mxPoint x="570" y="290" as="sourcePoint" />
            <mxPoint x="529" y="312" as="targetPoint" />
            <Array as="points" />
          </mxGeometry>
        </mxCell>
        <mxCell id="8T9HnyYNT7zKvpUFhSAX-12" value="(0,1)" style="resizable=0;html=1;whiteSpace=wrap;align=right;verticalAlign=bottom;fontColor=#000000;" connectable="0" vertex="1" parent="8T9HnyYNT7zKvpUFhSAX-11">
          <mxGeometry x="1" relative="1" as="geometry">
            <mxPoint x="9" y="-7" as="offset" />
          </mxGeometry>
        </mxCell>
        <mxCell id="8T9HnyYNT7zKvpUFhSAX-13" value="" style="ellipse;whiteSpace=wrap;html=1;aspect=fixed;fillColor=#000000;fontColor=#333333;strokeColor=#000000;" vertex="1" parent="1">
          <mxGeometry x="640" y="330" width="20" height="20" as="geometry" />
        </mxCell>
        <mxCell id="8T9HnyYNT7zKvpUFhSAX-14" value="" style="ellipse;whiteSpace=wrap;html=1;aspect=fixed;fillColor=#000000;fontColor=#333333;strokeColor=#000000;" vertex="1" parent="1">
          <mxGeometry x="540" y="330" width="20" height="20" as="geometry" />
        </mxCell>
        <mxCell id="8T9HnyYNT7zKvpUFhSAX-15" value="" style="endArrow=none;html=1;rounded=0;exitX=0;exitY=0.5;exitDx=0;exitDy=0;strokeColor=#000000;labelBackgroundColor=#000000;" edge="1" parent="1" source="8T9HnyYNT7zKvpUFhSAX-14">
          <mxGeometry width="50" height="50" relative="1" as="geometry">
            <mxPoint x="560" y="230" as="sourcePoint" />
            <mxPoint x="460" y="340" as="targetPoint" />
          </mxGeometry>
        </mxCell>
        <mxCell id="8T9HnyYNT7zKvpUFhSAX-16" value="" style="endArrow=none;html=1;rounded=0;strokeColor=#000000;labelBackgroundColor=none;entryX=1;entryY=0.5;entryDx=0;entryDy=0;" edge="1" parent="1" target="8T9HnyYNT7zKvpUFhSAX-13">
          <mxGeometry width="50" height="50" relative="1" as="geometry">
            <mxPoint x="740" y="340" as="sourcePoint" />
            <mxPoint x="670" y="330" as="targetPoint" />
          </mxGeometry>
        </mxCell>
        <mxCell id="8T9HnyYNT7zKvpUFhSAX-22" value="" style="ellipse;whiteSpace=wrap;html=1;aspect=fixed;fillColor=#FFFFFF;fontColor=#333333;strokeColor=#000000;" vertex="1" parent="1">
          <mxGeometry x="1170" y="120.25" width="20" height="20" as="geometry" />
        </mxCell>
        <mxCell id="8T9HnyYNT7zKvpUFhSAX-23" value="" style="endArrow=none;html=1;rounded=0;strokeColor=#18141d;entryX=0.75;entryY=0;entryDx=0;entryDy=0;exitX=0.5;exitY=1;exitDx=0;exitDy=0;" edge="1" source="8T9HnyYNT7zKvpUFhSAX-22" parent="1" target="xtBjh4fdduiDJycLXYyy-195">
          <mxGeometry width="50" height="50" relative="1" as="geometry">
            <mxPoint x="845" y="431" as="sourcePoint" />
            <mxPoint x="1170" y="66" as="targetPoint" />
            <Array as="points" />
          </mxGeometry>
        </mxCell>
        <mxCell id="8T9HnyYNT7zKvpUFhSAX-24" value="Start date" style="text;html=1;align=center;verticalAlign=middle;whiteSpace=wrap;rounded=0;fontColor=#000000;" vertex="1" parent="1">
          <mxGeometry x="1150" y="105.25" width="60" height="15" as="geometry" />
        </mxCell>
        <mxCell id="8T9HnyYNT7zKvpUFhSAX-25" value="E-PastE" style="shape=rhombus;perimeter=rhombusPerimeter;whiteSpace=wrap;html=1;align=center;strokeColor=#000000;fillColor=#f5f5f5;fontColor=#333333;" vertex="1" parent="1">
          <mxGeometry x="810" y="105.25" width="80" height="32" as="geometry" />
        </mxCell>
        <mxCell id="8T9HnyYNT7zKvpUFhSAX-26" value="" style="endArrow=none;html=1;rounded=0;strokeColor=#000000;fontColor=#000000;exitX=1;exitY=0.25;exitDx=0;exitDy=0;entryX=0;entryY=0.5;entryDx=0;entryDy=0;" edge="1" target="8T9HnyYNT7zKvpUFhSAX-25" parent="1" source="xtBjh4fdduiDJycLXYyy-6">
          <mxGeometry relative="1" as="geometry">
            <mxPoint x="647.67" y="200" as="sourcePoint" />
            <mxPoint x="697.67" y="570" as="targetPoint" />
            <Array as="points">
              <mxPoint x="680" y="250" />
              <mxPoint x="680" y="120" />
            </Array>
          </mxGeometry>
        </mxCell>
        <mxCell id="8T9HnyYNT7zKvpUFhSAX-27" value="(0,N)" style="resizable=0;html=1;whiteSpace=wrap;align=right;verticalAlign=bottom;fontColor=#000000;" connectable="0" vertex="1" parent="8T9HnyYNT7zKvpUFhSAX-26">
          <mxGeometry x="1" relative="1" as="geometry">
            <mxPoint as="offset" />
          </mxGeometry>
        </mxCell>
        <mxCell id="8T9HnyYNT7zKvpUFhSAX-28" value="" style="endArrow=none;html=1;rounded=0;strokeColor=#000000;fontColor=#000000;entryX=1;entryY=0.5;entryDx=0;entryDy=0;exitX=0.5;exitY=0;exitDx=0;exitDy=0;" edge="1" target="8T9HnyYNT7zKvpUFhSAX-25" parent="1" source="xtBjh4fdduiDJycLXYyy-195">
          <mxGeometry relative="1" as="geometry">
            <mxPoint x="1220" y="270.25" as="sourcePoint" />
            <mxPoint x="1107.67" y="337.75" as="targetPoint" />
            <Array as="points">
              <mxPoint x="1140" y="121.25" />
            </Array>
          </mxGeometry>
        </mxCell>
        <mxCell id="8T9HnyYNT7zKvpUFhSAX-29" value="(1,1)" style="resizable=0;html=1;whiteSpace=wrap;align=right;verticalAlign=bottom;fontColor=#000000;" connectable="0" vertex="1" parent="8T9HnyYNT7zKvpUFhSAX-28">
          <mxGeometry x="1" relative="1" as="geometry">
            <mxPoint x="29" as="offset" />
          </mxGeometry>
        </mxCell>
        <mxCell id="8T9HnyYNT7zKvpUFhSAX-30" value="C-CurrE" style="shape=rhombus;perimeter=rhombusPerimeter;whiteSpace=wrap;html=1;align=center;strokeColor=#000000;fillColor=#f5f5f5;fontColor=#333333;" vertex="1" parent="1">
          <mxGeometry x="810" y="224.25" width="80" height="32" as="geometry" />
        </mxCell>
        <mxCell id="8T9HnyYNT7zKvpUFhSAX-31" value="" style="endArrow=none;html=1;rounded=0;strokeColor=#000000;fontColor=#000000;exitX=1;exitY=0.5;exitDx=0;exitDy=0;entryX=0;entryY=0.5;entryDx=0;entryDy=0;" edge="1" parent="1" source="xtBjh4fdduiDJycLXYyy-10" target="8T9HnyYNT7zKvpUFhSAX-30">
          <mxGeometry relative="1" as="geometry">
            <mxPoint x="575" y="520" as="sourcePoint" />
            <mxPoint x="848" y="258" as="targetPoint" />
            <Array as="points">
              <mxPoint x="770" y="520" />
              <mxPoint x="770" y="240" />
            </Array>
          </mxGeometry>
        </mxCell>
        <mxCell id="8T9HnyYNT7zKvpUFhSAX-32" value="(1,N)" style="resizable=0;html=1;whiteSpace=wrap;align=right;verticalAlign=bottom;fontColor=#000000;" connectable="0" vertex="1" parent="8T9HnyYNT7zKvpUFhSAX-31">
          <mxGeometry x="1" relative="1" as="geometry">
            <mxPoint as="offset" />
          </mxGeometry>
        </mxCell>
        <mxCell id="8T9HnyYNT7zKvpUFhSAX-33" value="" style="endArrow=none;html=1;rounded=0;strokeColor=#000000;fontColor=#000000;exitX=0.25;exitY=0;exitDx=0;exitDy=0;entryX=1;entryY=0.5;entryDx=0;entryDy=0;" edge="1" parent="1" source="xtBjh4fdduiDJycLXYyy-196" target="8T9HnyYNT7zKvpUFhSAX-30">
          <mxGeometry relative="1" as="geometry">
            <mxPoint x="1000" y="220.25" as="sourcePoint" />
            <mxPoint x="897" y="208.25" as="targetPoint" />
            <Array as="points">
              <mxPoint x="960" y="240.25" />
            </Array>
          </mxGeometry>
        </mxCell>
        <mxCell id="8T9HnyYNT7zKvpUFhSAX-34" value="(1,1)" style="resizable=0;html=1;whiteSpace=wrap;align=right;verticalAlign=bottom;fontColor=#000000;" connectable="0" vertex="1" parent="8T9HnyYNT7zKvpUFhSAX-33">
          <mxGeometry x="1" relative="1" as="geometry">
            <mxPoint x="30" as="offset" />
          </mxGeometry>
        </mxCell>
        <mxCell id="8T9HnyYNT7zKvpUFhSAX-35" value="" style="ellipse;whiteSpace=wrap;html=1;aspect=fixed;fillColor=#000000;fontColor=#333333;strokeColor=#000000;" vertex="1" parent="1">
          <mxGeometry x="1220" y="137.25" width="20" height="20" as="geometry" />
        </mxCell>
        <mxCell id="8T9HnyYNT7zKvpUFhSAX-36" value="" style="curved=1;endArrow=none;html=1;rounded=0;endFill=0;exitX=0;exitY=0.5;exitDx=0;exitDy=0;strokeColor=#000000;" edge="1" source="8T9HnyYNT7zKvpUFhSAX-35" parent="1">
          <mxGeometry width="50" height="50" relative="1" as="geometry">
            <mxPoint x="1245" y="189" as="sourcePoint" />
            <mxPoint x="1110" y="147" as="targetPoint" />
            <Array as="points" />
          </mxGeometry>
        </mxCell>
        <mxCell id="xtBjh4fdduiDJycLXYyy-2" value="Account" style="whiteSpace=wrap;html=1;align=center;fillColor=#f5f5f5;fontColor=#333333;strokeColor=#000000;" parent="1" vertex="1">
          <mxGeometry x="320" y="150" width="80" height="40" as="geometry" />
        </mxCell>
        <mxCell id="xtBjh4fdduiDJycLXYyy-13" value="" style="ellipse;whiteSpace=wrap;html=1;aspect=fixed;strokeColor=#000000;" parent="1" vertex="1">
          <mxGeometry x="270" y="160" width="20" height="20" as="geometry" />
        </mxCell>
        <mxCell id="xtBjh4fdduiDJycLXYyy-14" value="" style="ellipse;whiteSpace=wrap;html=1;aspect=fixed;fillColor=#f5f5f5;fontColor=#333333;strokeColor=#000000;" parent="1" vertex="1">
          <mxGeometry x="300" y="117" width="20" height="20" as="geometry" />
        </mxCell>
        <mxCell id="xtBjh4fdduiDJycLXYyy-15" value="" style="ellipse;whiteSpace=wrap;html=1;aspect=fixed;fillColor=#f5f5f5;fontColor=#333333;strokeColor=#000000;" parent="1" vertex="1">
          <mxGeometry x="350" y="107" width="20" height="20" as="geometry" />
        </mxCell>
        <mxCell id="xtBjh4fdduiDJycLXYyy-16" value="" style="endArrow=none;html=1;rounded=0;entryX=1;entryY=0.5;entryDx=0;entryDy=0;strokeColor=#18141d;exitX=0;exitY=0.5;exitDx=0;exitDy=0;" parent="1" source="xtBjh4fdduiDJycLXYyy-2" target="xtBjh4fdduiDJycLXYyy-13" edge="1">
          <mxGeometry width="50" height="50" relative="1" as="geometry">
            <mxPoint x="250" y="140" as="sourcePoint" />
            <mxPoint x="650" y="330" as="targetPoint" />
          </mxGeometry>
        </mxCell>
        <mxCell id="xtBjh4fdduiDJycLXYyy-17" value="" style="endArrow=none;html=1;rounded=0;entryX=0.5;entryY=1;entryDx=0;entryDy=0;exitX=0;exitY=0;exitDx=0;exitDy=0;strokeColor=#18141d;" parent="1" source="xtBjh4fdduiDJycLXYyy-2" target="xtBjh4fdduiDJycLXYyy-14" edge="1">
          <mxGeometry width="50" height="50" relative="1" as="geometry">
            <mxPoint x="290" y="160" as="sourcePoint" />
            <mxPoint x="270" y="120" as="targetPoint" />
          </mxGeometry>
        </mxCell>
        <mxCell id="xtBjh4fdduiDJycLXYyy-18" value="" style="endArrow=none;html=1;rounded=0;entryX=0.5;entryY=1;entryDx=0;entryDy=0;exitX=0.5;exitY=0;exitDx=0;exitDy=0;strokeColor=#18141d;" parent="1" source="xtBjh4fdduiDJycLXYyy-2" target="xtBjh4fdduiDJycLXYyy-15" edge="1">
          <mxGeometry width="50" height="50" relative="1" as="geometry">
            <mxPoint x="305" y="161" as="sourcePoint" />
            <mxPoint x="310" y="120" as="targetPoint" />
          </mxGeometry>
        </mxCell>
        <mxCell id="xtBjh4fdduiDJycLXYyy-19" value="Id" style="text;html=1;align=center;verticalAlign=middle;whiteSpace=wrap;rounded=0;fontColor=#000000;" parent="1" vertex="1">
          <mxGeometry x="270" y="137" width="20" height="20" as="geometry" />
        </mxCell>
        <mxCell id="xtBjh4fdduiDJycLXYyy-20" value="Login" style="text;html=1;align=center;verticalAlign=middle;whiteSpace=wrap;rounded=0;fontColor=#000000;" parent="1" vertex="1">
          <mxGeometry x="290" y="97" width="40" height="20" as="geometry" />
        </mxCell>
        <mxCell id="xtBjh4fdduiDJycLXYyy-21" value="Password" style="text;html=1;align=center;verticalAlign=middle;whiteSpace=wrap;rounded=0;fontColor=#000000;" parent="1" vertex="1">
          <mxGeometry x="330" y="87" width="60" height="20" as="geometry" />
        </mxCell>
        <mxCell id="8T9HnyYNT7zKvpUFhSAX-37" value="" style="ellipse;whiteSpace=wrap;html=1;aspect=fixed;fillColor=#f5f5f5;fontColor=#333333;strokeColor=#000000;" vertex="1" parent="1">
          <mxGeometry x="400" y="117" width="20" height="20" as="geometry" />
        </mxCell>
        <mxCell id="8T9HnyYNT7zKvpUFhSAX-38" value="Type" style="text;html=1;align=center;verticalAlign=middle;whiteSpace=wrap;rounded=0;fontColor=#000000;" vertex="1" parent="1">
          <mxGeometry x="395" y="97" width="30" height="20" as="geometry" />
        </mxCell>
        <mxCell id="8T9HnyYNT7zKvpUFhSAX-39" value="" style="endArrow=none;html=1;rounded=0;entryX=0.5;entryY=1;entryDx=0;entryDy=0;exitX=1;exitY=0;exitDx=0;exitDy=0;strokeColor=#18141d;" edge="1" parent="1" source="xtBjh4fdduiDJycLXYyy-2" target="8T9HnyYNT7zKvpUFhSAX-37">
          <mxGeometry width="50" height="50" relative="1" as="geometry">
            <mxPoint x="340" y="160" as="sourcePoint" />
            <mxPoint x="370" y="150" as="targetPoint" />
          </mxGeometry>
        </mxCell>
        <mxCell id="8T9HnyYNT7zKvpUFhSAX-40" value="" style="ellipse;whiteSpace=wrap;html=1;aspect=fixed;fillColor=#FFFFFF;fontColor=#333333;strokeColor=#000000;" vertex="1" parent="1">
          <mxGeometry x="1030" y="260" width="20" height="20" as="geometry" />
        </mxCell>
        <mxCell id="8T9HnyYNT7zKvpUFhSAX-41" value="" style="endArrow=none;html=1;rounded=0;strokeColor=#18141d;entryX=0.75;entryY=0;entryDx=0;entryDy=0;exitX=0.5;exitY=1;exitDx=0;exitDy=0;" edge="1" parent="1" source="8T9HnyYNT7zKvpUFhSAX-40" target="xtBjh4fdduiDJycLXYyy-196">
          <mxGeometry width="50" height="50" relative="1" as="geometry">
            <mxPoint x="670" y="570.38" as="sourcePoint" />
            <mxPoint x="1060" y="210.13" as="targetPoint" />
            <Array as="points" />
          </mxGeometry>
        </mxCell>
        <mxCell id="8T9HnyYNT7zKvpUFhSAX-42" value="Start date" style="text;html=1;align=center;verticalAlign=middle;whiteSpace=wrap;rounded=0;fontColor=#000000;" vertex="1" parent="1">
          <mxGeometry x="1010" y="244.62" width="60" height="15" as="geometry" />
        </mxCell>
        <mxCell id="8T9HnyYNT7zKvpUFhSAX-64" value="Visit-P" style="shape=rhombus;perimeter=rhombusPerimeter;whiteSpace=wrap;html=1;align=center;strokeColor=#000000;fillColor=#f5f5f5;fontColor=#333333;" vertex="1" parent="1">
          <mxGeometry x="120" y="860" width="70" height="35" as="geometry" />
        </mxCell>
        <mxCell id="8T9HnyYNT7zKvpUFhSAX-65" value="" style="endArrow=none;html=1;rounded=0;strokeColor=#000000;fontColor=#000000;exitX=0.5;exitY=1;exitDx=0;exitDy=0;entryX=0;entryY=0.5;entryDx=0;entryDy=0;" edge="1" parent="1" target="8T9HnyYNT7zKvpUFhSAX-64" source="xtBjh4fdduiDJycLXYyy-237">
          <mxGeometry relative="1" as="geometry">
            <mxPoint x="85" y="863" as="sourcePoint" />
            <mxPoint x="115" y="893" as="targetPoint" />
            <Array as="points">
              <mxPoint x="90" y="878" />
            </Array>
          </mxGeometry>
        </mxCell>
        <mxCell id="8T9HnyYNT7zKvpUFhSAX-66" value="(0,1)" style="resizable=0;html=1;whiteSpace=wrap;align=right;verticalAlign=bottom;fontColor=#000000;" connectable="0" vertex="1" parent="8T9HnyYNT7zKvpUFhSAX-65">
          <mxGeometry x="1" relative="1" as="geometry">
            <mxPoint as="offset" />
          </mxGeometry>
        </mxCell>
      </root>
    </mxGraphModel>
  </diagram>
</mxfile>
